<?xml version="1.0" encoding="utf-8" standalone="no"?>
<!DOCTYPE svg PUBLIC "-//W3C//DTD SVG 1.1//EN"
  "http://www.w3.org/Graphics/SVG/1.1/DTD/svg11.dtd">
<svg xmlns:xlink="http://www.w3.org/1999/xlink" width="705.347375pt" height="1064.984612pt" viewBox="0 0 705.347375 1064.984612" xmlns="http://www.w3.org/2000/svg" version="1.1">
 <metadata>
  <rdf:RDF xmlns:dc="http://purl.org/dc/elements/1.1/" xmlns:cc="http://creativecommons.org/ns#" xmlns:rdf="http://www.w3.org/1999/02/22-rdf-syntax-ns#">
   <cc:Work>
    <dc:type rdf:resource="http://purl.org/dc/dcmitype/StillImage"/>
    <dc:date>2026-02-10T18:20:16.319717</dc:date>
    <dc:format>image/svg+xml</dc:format>
    <dc:creator>
     <cc:Agent>
      <dc:title>Matplotlib v3.10.6, https://matplotlib.org/</dc:title>
     </cc:Agent>
    </dc:creator>
   </cc:Work>
  </rdf:RDF>
 </metadata>
 <defs>
  <style type="text/css">*{stroke-linejoin: round; stroke-linecap: butt}</style>
 </defs>
 <g id="figure_1">
  <g id="patch_1">
   <path d="M 0 1064.984612 
L 705.347375 1064.984612 
L 705.347375 0 
L 0 0 
z
" style="fill: #ffffff"/>
  </g>
  <g id="axes_1">
   <g id="patch_2">
    <path d="M 189.987775 311.624212 
L 698.147375 311.624212 
L 698.147375 37.837812 
L 189.987775 37.837812 
z
" style="fill: #ffffff"/>
   </g>
   <g id="matplotlib.axis_1">
    <g id="xtick_1">
     <g id="line2d_1">
      <defs>
       <path id="me797ee3989" d="M 0 0 
L 0 4.8 
" style="stroke: #262626"/>
      </defs>
      <g>
       <use xlink:href="#me797ee3989" x="189.987775" y="311.624212" style="fill: #262626; stroke: #262626"/>
      </g>
     </g>
     <g id="text_1">
      <!-- 0 -->
      <g style="fill: #262626" transform="translate(186.068475 329.285487) scale(0.1232 -0.1232)">
       <defs>
        <path id="DejaVuSans-30" d="M 2034 4250 
Q 1547 4250 1301 3770 
Q 1056 3291 1056 2328 
Q 1056 1369 1301 889 
Q 1547 409 2034 409 
Q 2525 409 2770 889 
Q 3016 1369 3016 2328 
Q 3016 3291 2770 3770 
Q 2525 4250 2034 4250 
z
M 2034 4750 
Q 2819 4750 3233 4129 
Q 3647 3509 3647 2328 
Q 3647 1150 3233 529 
Q 2819 -91 2034 -91 
Q 1250 -91 836 529 
Q 422 1150 422 2328 
Q 422 3509 836 4129 
Q 1250 4750 2034 4750 
z
" transform="scale(0.015625)"/>
       </defs>
       <use xlink:href="#DejaVuSans-30"/>
      </g>
     </g>
    </g>
    <g id="xtick_2">
     <g id="line2d_2">
      <g>
       <use xlink:href="#me797ee3989" x="264.51785" y="311.624212" style="fill: #262626; stroke: #262626"/>
      </g>
     </g>
     <g id="text_2">
      <!-- 100 k -->
      <g style="fill: #262626" transform="translate(247.2352 329.285487) scale(0.1232 -0.1232)">
       <defs>
        <path id="DejaVuSans-31" d="M 794 531 
L 1825 531 
L 1825 4091 
L 703 3866 
L 703 4441 
L 1819 4666 
L 2450 4666 
L 2450 531 
L 3481 531 
L 3481 0 
L 794 0 
L 794 531 
z
" transform="scale(0.015625)"/>
        <path id="DejaVuSans-20" transform="scale(0.015625)"/>
        <path id="DejaVuSans-6b" d="M 581 4863 
L 1159 4863 
L 1159 1991 
L 2875 3500 
L 3609 3500 
L 1753 1863 
L 3688 0 
L 2938 0 
L 1159 1709 
L 1159 0 
L 581 0 
L 581 4863 
z
" transform="scale(0.015625)"/>
       </defs>
       <use xlink:href="#DejaVuSans-31"/>
       <use xlink:href="#DejaVuSans-30" transform="translate(63.623047 0)"/>
       <use xlink:href="#DejaVuSans-30" transform="translate(127.246094 0)"/>
       <use xlink:href="#DejaVuSans-20" transform="translate(190.869141 0)"/>
       <use xlink:href="#DejaVuSans-6b" transform="translate(222.65625 0)"/>
      </g>
     </g>
    </g>
    <g id="xtick_3">
     <g id="line2d_3">
      <g>
       <use xlink:href="#me797ee3989" x="339.047924" y="311.624212" style="fill: #262626; stroke: #262626"/>
      </g>
     </g>
     <g id="text_3">
      <!-- 200 k -->
      <g style="fill: #262626" transform="translate(321.765274 329.285487) scale(0.1232 -0.1232)">
       <defs>
        <path id="DejaVuSans-32" d="M 1228 531 
L 3431 531 
L 3431 0 
L 469 0 
L 469 531 
Q 828 903 1448 1529 
Q 2069 2156 2228 2338 
Q 2531 2678 2651 2914 
Q 2772 3150 2772 3378 
Q 2772 3750 2511 3984 
Q 2250 4219 1831 4219 
Q 1534 4219 1204 4116 
Q 875 4013 500 3803 
L 500 4441 
Q 881 4594 1212 4672 
Q 1544 4750 1819 4750 
Q 2544 4750 2975 4387 
Q 3406 4025 3406 3419 
Q 3406 3131 3298 2873 
Q 3191 2616 2906 2266 
Q 2828 2175 2409 1742 
Q 1991 1309 1228 531 
z
" transform="scale(0.015625)"/>
       </defs>
       <use xlink:href="#DejaVuSans-32"/>
       <use xlink:href="#DejaVuSans-30" transform="translate(63.623047 0)"/>
       <use xlink:href="#DejaVuSans-30" transform="translate(127.246094 0)"/>
       <use xlink:href="#DejaVuSans-20" transform="translate(190.869141 0)"/>
       <use xlink:href="#DejaVuSans-6b" transform="translate(222.65625 0)"/>
      </g>
     </g>
    </g>
    <g id="xtick_4">
     <g id="line2d_4">
      <g>
       <use xlink:href="#me797ee3989" x="413.577999" y="311.624212" style="fill: #262626; stroke: #262626"/>
      </g>
     </g>
     <g id="text_4">
      <!-- 300 k -->
      <g style="fill: #262626" transform="translate(396.295349 329.285487) scale(0.1232 -0.1232)">
       <defs>
        <path id="DejaVuSans-33" d="M 2597 2516 
Q 3050 2419 3304 2112 
Q 3559 1806 3559 1356 
Q 3559 666 3084 287 
Q 2609 -91 1734 -91 
Q 1441 -91 1130 -33 
Q 819 25 488 141 
L 488 750 
Q 750 597 1062 519 
Q 1375 441 1716 441 
Q 2309 441 2620 675 
Q 2931 909 2931 1356 
Q 2931 1769 2642 2001 
Q 2353 2234 1838 2234 
L 1294 2234 
L 1294 2753 
L 1863 2753 
Q 2328 2753 2575 2939 
Q 2822 3125 2822 3475 
Q 2822 3834 2567 4026 
Q 2313 4219 1838 4219 
Q 1578 4219 1281 4162 
Q 984 4106 628 3988 
L 628 4550 
Q 988 4650 1302 4700 
Q 1616 4750 1894 4750 
Q 2613 4750 3031 4423 
Q 3450 4097 3450 3541 
Q 3450 3153 3228 2886 
Q 3006 2619 2597 2516 
z
" transform="scale(0.015625)"/>
       </defs>
       <use xlink:href="#DejaVuSans-33"/>
       <use xlink:href="#DejaVuSans-30" transform="translate(63.623047 0)"/>
       <use xlink:href="#DejaVuSans-30" transform="translate(127.246094 0)"/>
       <use xlink:href="#DejaVuSans-20" transform="translate(190.869141 0)"/>
       <use xlink:href="#DejaVuSans-6b" transform="translate(222.65625 0)"/>
      </g>
     </g>
    </g>
    <g id="xtick_5">
     <g id="line2d_5">
      <g>
       <use xlink:href="#me797ee3989" x="488.108074" y="311.624212" style="fill: #262626; stroke: #262626"/>
      </g>
     </g>
     <g id="text_5">
      <!-- 400 k -->
      <g style="fill: #262626" transform="translate(470.825424 329.285487) scale(0.1232 -0.1232)">
       <defs>
        <path id="DejaVuSans-34" d="M 2419 4116 
L 825 1625 
L 2419 1625 
L 2419 4116 
z
M 2253 4666 
L 3047 4666 
L 3047 1625 
L 3713 1625 
L 3713 1100 
L 3047 1100 
L 3047 0 
L 2419 0 
L 2419 1100 
L 313 1100 
L 313 1709 
L 2253 4666 
z
" transform="scale(0.015625)"/>
       </defs>
       <use xlink:href="#DejaVuSans-34"/>
       <use xlink:href="#DejaVuSans-30" transform="translate(63.623047 0)"/>
       <use xlink:href="#DejaVuSans-30" transform="translate(127.246094 0)"/>
       <use xlink:href="#DejaVuSans-20" transform="translate(190.869141 0)"/>
       <use xlink:href="#DejaVuSans-6b" transform="translate(222.65625 0)"/>
      </g>
     </g>
    </g>
    <g id="xtick_6">
     <g id="line2d_6">
      <g>
       <use xlink:href="#me797ee3989" x="562.638148" y="311.624212" style="fill: #262626; stroke: #262626"/>
      </g>
     </g>
     <g id="text_6">
      <!-- 500 k -->
      <g style="fill: #262626" transform="translate(545.355498 329.285487) scale(0.1232 -0.1232)">
       <defs>
        <path id="DejaVuSans-35" d="M 691 4666 
L 3169 4666 
L 3169 4134 
L 1269 4134 
L 1269 2991 
Q 1406 3038 1543 3061 
Q 1681 3084 1819 3084 
Q 2600 3084 3056 2656 
Q 3513 2228 3513 1497 
Q 3513 744 3044 326 
Q 2575 -91 1722 -91 
Q 1428 -91 1123 -41 
Q 819 9 494 109 
L 494 744 
Q 775 591 1075 516 
Q 1375 441 1709 441 
Q 2250 441 2565 725 
Q 2881 1009 2881 1497 
Q 2881 1984 2565 2268 
Q 2250 2553 1709 2553 
Q 1456 2553 1204 2497 
Q 953 2441 691 2322 
L 691 4666 
z
" transform="scale(0.015625)"/>
       </defs>
       <use xlink:href="#DejaVuSans-35"/>
       <use xlink:href="#DejaVuSans-30" transform="translate(63.623047 0)"/>
       <use xlink:href="#DejaVuSans-30" transform="translate(127.246094 0)"/>
       <use xlink:href="#DejaVuSans-20" transform="translate(190.869141 0)"/>
       <use xlink:href="#DejaVuSans-6b" transform="translate(222.65625 0)"/>
      </g>
     </g>
    </g>
    <g id="xtick_7">
     <g id="line2d_7">
      <g>
       <use xlink:href="#me797ee3989" x="637.168223" y="311.624212" style="fill: #262626; stroke: #262626"/>
      </g>
     </g>
     <g id="text_7">
      <!-- 600 k -->
      <g style="fill: #262626" transform="translate(619.885573 329.285487) scale(0.1232 -0.1232)">
       <defs>
        <path id="DejaVuSans-36" d="M 2113 2584 
Q 1688 2584 1439 2293 
Q 1191 2003 1191 1497 
Q 1191 994 1439 701 
Q 1688 409 2113 409 
Q 2538 409 2786 701 
Q 3034 994 3034 1497 
Q 3034 2003 2786 2293 
Q 2538 2584 2113 2584 
z
M 3366 4563 
L 3366 3988 
Q 3128 4100 2886 4159 
Q 2644 4219 2406 4219 
Q 1781 4219 1451 3797 
Q 1122 3375 1075 2522 
Q 1259 2794 1537 2939 
Q 1816 3084 2150 3084 
Q 2853 3084 3261 2657 
Q 3669 2231 3669 1497 
Q 3669 778 3244 343 
Q 2819 -91 2113 -91 
Q 1303 -91 875 529 
Q 447 1150 447 2328 
Q 447 3434 972 4092 
Q 1497 4750 2381 4750 
Q 2619 4750 2861 4703 
Q 3103 4656 3366 4563 
z
" transform="scale(0.015625)"/>
       </defs>
       <use xlink:href="#DejaVuSans-36"/>
       <use xlink:href="#DejaVuSans-30" transform="translate(63.623047 0)"/>
       <use xlink:href="#DejaVuSans-30" transform="translate(127.246094 0)"/>
       <use xlink:href="#DejaVuSans-20" transform="translate(190.869141 0)"/>
       <use xlink:href="#DejaVuSans-6b" transform="translate(222.65625 0)"/>
      </g>
     </g>
    </g>
    <g id="text_8">
     <!-- Mean Abundance (RPKM) -->
     <g style="fill: #262626" transform="translate(368.527575 344.965787) scale(0.12 -0.12)">
      <defs>
       <path id="DejaVuSans-4d" d="M 628 4666 
L 1569 4666 
L 2759 1491 
L 3956 4666 
L 4897 4666 
L 4897 0 
L 4281 0 
L 4281 4097 
L 3078 897 
L 2444 897 
L 1241 4097 
L 1241 0 
L 628 0 
L 628 4666 
z
" transform="scale(0.015625)"/>
       <path id="DejaVuSans-65" d="M 3597 1894 
L 3597 1613 
L 953 1613 
Q 991 1019 1311 708 
Q 1631 397 2203 397 
Q 2534 397 2845 478 
Q 3156 559 3463 722 
L 3463 178 
Q 3153 47 2828 -22 
Q 2503 -91 2169 -91 
Q 1331 -91 842 396 
Q 353 884 353 1716 
Q 353 2575 817 3079 
Q 1281 3584 2069 3584 
Q 2775 3584 3186 3129 
Q 3597 2675 3597 1894 
z
M 3022 2063 
Q 3016 2534 2758 2815 
Q 2500 3097 2075 3097 
Q 1594 3097 1305 2825 
Q 1016 2553 972 2059 
L 3022 2063 
z
" transform="scale(0.015625)"/>
       <path id="DejaVuSans-61" d="M 2194 1759 
Q 1497 1759 1228 1600 
Q 959 1441 959 1056 
Q 959 750 1161 570 
Q 1363 391 1709 391 
Q 2188 391 2477 730 
Q 2766 1069 2766 1631 
L 2766 1759 
L 2194 1759 
z
M 3341 1997 
L 3341 0 
L 2766 0 
L 2766 531 
Q 2569 213 2275 61 
Q 1981 -91 1556 -91 
Q 1019 -91 701 211 
Q 384 513 384 1019 
Q 384 1609 779 1909 
Q 1175 2209 1959 2209 
L 2766 2209 
L 2766 2266 
Q 2766 2663 2505 2880 
Q 2244 3097 1772 3097 
Q 1472 3097 1187 3025 
Q 903 2953 641 2809 
L 641 3341 
Q 956 3463 1253 3523 
Q 1550 3584 1831 3584 
Q 2591 3584 2966 3190 
Q 3341 2797 3341 1997 
z
" transform="scale(0.015625)"/>
       <path id="DejaVuSans-6e" d="M 3513 2113 
L 3513 0 
L 2938 0 
L 2938 2094 
Q 2938 2591 2744 2837 
Q 2550 3084 2163 3084 
Q 1697 3084 1428 2787 
Q 1159 2491 1159 1978 
L 1159 0 
L 581 0 
L 581 3500 
L 1159 3500 
L 1159 2956 
Q 1366 3272 1645 3428 
Q 1925 3584 2291 3584 
Q 2894 3584 3203 3211 
Q 3513 2838 3513 2113 
z
" transform="scale(0.015625)"/>
       <path id="DejaVuSans-41" d="M 2188 4044 
L 1331 1722 
L 3047 1722 
L 2188 4044 
z
M 1831 4666 
L 2547 4666 
L 4325 0 
L 3669 0 
L 3244 1197 
L 1141 1197 
L 716 0 
L 50 0 
L 1831 4666 
z
" transform="scale(0.015625)"/>
       <path id="DejaVuSans-62" d="M 3116 1747 
Q 3116 2381 2855 2742 
Q 2594 3103 2138 3103 
Q 1681 3103 1420 2742 
Q 1159 2381 1159 1747 
Q 1159 1113 1420 752 
Q 1681 391 2138 391 
Q 2594 391 2855 752 
Q 3116 1113 3116 1747 
z
M 1159 2969 
Q 1341 3281 1617 3432 
Q 1894 3584 2278 3584 
Q 2916 3584 3314 3078 
Q 3713 2572 3713 1747 
Q 3713 922 3314 415 
Q 2916 -91 2278 -91 
Q 1894 -91 1617 61 
Q 1341 213 1159 525 
L 1159 0 
L 581 0 
L 581 4863 
L 1159 4863 
L 1159 2969 
z
" transform="scale(0.015625)"/>
       <path id="DejaVuSans-75" d="M 544 1381 
L 544 3500 
L 1119 3500 
L 1119 1403 
Q 1119 906 1312 657 
Q 1506 409 1894 409 
Q 2359 409 2629 706 
Q 2900 1003 2900 1516 
L 2900 3500 
L 3475 3500 
L 3475 0 
L 2900 0 
L 2900 538 
Q 2691 219 2414 64 
Q 2138 -91 1772 -91 
Q 1169 -91 856 284 
Q 544 659 544 1381 
z
M 1991 3584 
L 1991 3584 
z
" transform="scale(0.015625)"/>
       <path id="DejaVuSans-64" d="M 2906 2969 
L 2906 4863 
L 3481 4863 
L 3481 0 
L 2906 0 
L 2906 525 
Q 2725 213 2448 61 
Q 2172 -91 1784 -91 
Q 1150 -91 751 415 
Q 353 922 353 1747 
Q 353 2572 751 3078 
Q 1150 3584 1784 3584 
Q 2172 3584 2448 3432 
Q 2725 3281 2906 2969 
z
M 947 1747 
Q 947 1113 1208 752 
Q 1469 391 1925 391 
Q 2381 391 2643 752 
Q 2906 1113 2906 1747 
Q 2906 2381 2643 2742 
Q 2381 3103 1925 3103 
Q 1469 3103 1208 2742 
Q 947 2381 947 1747 
z
" transform="scale(0.015625)"/>
       <path id="DejaVuSans-63" d="M 3122 3366 
L 3122 2828 
Q 2878 2963 2633 3030 
Q 2388 3097 2138 3097 
Q 1578 3097 1268 2742 
Q 959 2388 959 1747 
Q 959 1106 1268 751 
Q 1578 397 2138 397 
Q 2388 397 2633 464 
Q 2878 531 3122 666 
L 3122 134 
Q 2881 22 2623 -34 
Q 2366 -91 2075 -91 
Q 1284 -91 818 406 
Q 353 903 353 1747 
Q 353 2603 823 3093 
Q 1294 3584 2113 3584 
Q 2378 3584 2631 3529 
Q 2884 3475 3122 3366 
z
" transform="scale(0.015625)"/>
       <path id="DejaVuSans-28" d="M 1984 4856 
Q 1566 4138 1362 3434 
Q 1159 2731 1159 2009 
Q 1159 1288 1364 580 
Q 1569 -128 1984 -844 
L 1484 -844 
Q 1016 -109 783 600 
Q 550 1309 550 2009 
Q 550 2706 781 3412 
Q 1013 4119 1484 4856 
L 1984 4856 
z
" transform="scale(0.015625)"/>
       <path id="DejaVuSans-52" d="M 2841 2188 
Q 3044 2119 3236 1894 
Q 3428 1669 3622 1275 
L 4263 0 
L 3584 0 
L 2988 1197 
Q 2756 1666 2539 1819 
Q 2322 1972 1947 1972 
L 1259 1972 
L 1259 0 
L 628 0 
L 628 4666 
L 2053 4666 
Q 2853 4666 3247 4331 
Q 3641 3997 3641 3322 
Q 3641 2881 3436 2590 
Q 3231 2300 2841 2188 
z
M 1259 4147 
L 1259 2491 
L 2053 2491 
Q 2509 2491 2742 2702 
Q 2975 2913 2975 3322 
Q 2975 3731 2742 3939 
Q 2509 4147 2053 4147 
L 1259 4147 
z
" transform="scale(0.015625)"/>
       <path id="DejaVuSans-50" d="M 1259 4147 
L 1259 2394 
L 2053 2394 
Q 2494 2394 2734 2622 
Q 2975 2850 2975 3272 
Q 2975 3691 2734 3919 
Q 2494 4147 2053 4147 
L 1259 4147 
z
M 628 4666 
L 2053 4666 
Q 2838 4666 3239 4311 
Q 3641 3956 3641 3272 
Q 3641 2581 3239 2228 
Q 2838 1875 2053 1875 
L 1259 1875 
L 1259 0 
L 628 0 
L 628 4666 
z
" transform="scale(0.015625)"/>
       <path id="DejaVuSans-4b" d="M 628 4666 
L 1259 4666 
L 1259 2694 
L 3353 4666 
L 4166 4666 
L 1850 2491 
L 4331 0 
L 3500 0 
L 1259 2247 
L 1259 0 
L 628 0 
L 628 4666 
z
" transform="scale(0.015625)"/>
       <path id="DejaVuSans-29" d="M 513 4856 
L 1013 4856 
Q 1481 4119 1714 3412 
Q 1947 2706 1947 2009 
Q 1947 1309 1714 600 
Q 1481 -109 1013 -844 
L 513 -844 
Q 928 -128 1133 580 
Q 1338 1288 1338 2009 
Q 1338 2731 1133 3434 
Q 928 4138 513 4856 
z
" transform="scale(0.015625)"/>
      </defs>
      <use xlink:href="#DejaVuSans-4d"/>
      <use xlink:href="#DejaVuSans-65" transform="translate(86.279297 0)"/>
      <use xlink:href="#DejaVuSans-61" transform="translate(147.802734 0)"/>
      <use xlink:href="#DejaVuSans-6e" transform="translate(209.082031 0)"/>
      <use xlink:href="#DejaVuSans-20" transform="translate(272.460938 0)"/>
      <use xlink:href="#DejaVuSans-41" transform="translate(304.248047 0)"/>
      <use xlink:href="#DejaVuSans-62" transform="translate(372.65625 0)"/>
      <use xlink:href="#DejaVuSans-75" transform="translate(436.132812 0)"/>
      <use xlink:href="#DejaVuSans-6e" transform="translate(499.511719 0)"/>
      <use xlink:href="#DejaVuSans-64" transform="translate(562.890625 0)"/>
      <use xlink:href="#DejaVuSans-61" transform="translate(626.367188 0)"/>
      <use xlink:href="#DejaVuSans-6e" transform="translate(687.646484 0)"/>
      <use xlink:href="#DejaVuSans-63" transform="translate(751.025391 0)"/>
      <use xlink:href="#DejaVuSans-65" transform="translate(806.005859 0)"/>
      <use xlink:href="#DejaVuSans-20" transform="translate(867.529297 0)"/>
      <use xlink:href="#DejaVuSans-28" transform="translate(899.316406 0)"/>
      <use xlink:href="#DejaVuSans-52" transform="translate(938.330078 0)"/>
      <use xlink:href="#DejaVuSans-50" transform="translate(1007.8125 0)"/>
      <use xlink:href="#DejaVuSans-4b" transform="translate(1068.115234 0)"/>
      <use xlink:href="#DejaVuSans-4d" transform="translate(1133.691406 0)"/>
      <use xlink:href="#DejaVuSans-29" transform="translate(1219.970703 0)"/>
     </g>
    </g>
   </g>
   <g id="matplotlib.axis_2">
    <g id="ytick_1">
     <g id="line2d_8">
      <defs>
       <path id="m701d983a0f" d="M 0 0 
L -4.8 0 
" style="stroke: #262626"/>
      </defs>
      <g>
       <use xlink:href="#m701d983a0f" x="189.987775" y="65.216452" style="fill: #262626; stroke: #262626"/>
      </g>
     </g>
     <g id="text_9">
      <!-- Micrococcus luteus -->
      <g style="fill: #262626" transform="translate(64.667025 69.89709) scale(0.1232 -0.1232)">
       <defs>
        <path id="DejaVuSans-69" d="M 603 3500 
L 1178 3500 
L 1178 0 
L 603 0 
L 603 3500 
z
M 603 4863 
L 1178 4863 
L 1178 4134 
L 603 4134 
L 603 4863 
z
" transform="scale(0.015625)"/>
        <path id="DejaVuSans-72" d="M 2631 2963 
Q 2534 3019 2420 3045 
Q 2306 3072 2169 3072 
Q 1681 3072 1420 2755 
Q 1159 2438 1159 1844 
L 1159 0 
L 581 0 
L 581 3500 
L 1159 3500 
L 1159 2956 
Q 1341 3275 1631 3429 
Q 1922 3584 2338 3584 
Q 2397 3584 2469 3576 
Q 2541 3569 2628 3553 
L 2631 2963 
z
" transform="scale(0.015625)"/>
        <path id="DejaVuSans-6f" d="M 1959 3097 
Q 1497 3097 1228 2736 
Q 959 2375 959 1747 
Q 959 1119 1226 758 
Q 1494 397 1959 397 
Q 2419 397 2687 759 
Q 2956 1122 2956 1747 
Q 2956 2369 2687 2733 
Q 2419 3097 1959 3097 
z
M 1959 3584 
Q 2709 3584 3137 3096 
Q 3566 2609 3566 1747 
Q 3566 888 3137 398 
Q 2709 -91 1959 -91 
Q 1206 -91 779 398 
Q 353 888 353 1747 
Q 353 2609 779 3096 
Q 1206 3584 1959 3584 
z
" transform="scale(0.015625)"/>
        <path id="DejaVuSans-73" d="M 2834 3397 
L 2834 2853 
Q 2591 2978 2328 3040 
Q 2066 3103 1784 3103 
Q 1356 3103 1142 2972 
Q 928 2841 928 2578 
Q 928 2378 1081 2264 
Q 1234 2150 1697 2047 
L 1894 2003 
Q 2506 1872 2764 1633 
Q 3022 1394 3022 966 
Q 3022 478 2636 193 
Q 2250 -91 1575 -91 
Q 1294 -91 989 -36 
Q 684 19 347 128 
L 347 722 
Q 666 556 975 473 
Q 1284 391 1588 391 
Q 1994 391 2212 530 
Q 2431 669 2431 922 
Q 2431 1156 2273 1281 
Q 2116 1406 1581 1522 
L 1381 1569 
Q 847 1681 609 1914 
Q 372 2147 372 2553 
Q 372 3047 722 3315 
Q 1072 3584 1716 3584 
Q 2034 3584 2315 3537 
Q 2597 3491 2834 3397 
z
" transform="scale(0.015625)"/>
        <path id="DejaVuSans-6c" d="M 603 4863 
L 1178 4863 
L 1178 0 
L 603 0 
L 603 4863 
z
" transform="scale(0.015625)"/>
        <path id="DejaVuSans-74" d="M 1172 4494 
L 1172 3500 
L 2356 3500 
L 2356 3053 
L 1172 3053 
L 1172 1153 
Q 1172 725 1289 603 
Q 1406 481 1766 481 
L 2356 481 
L 2356 0 
L 1766 0 
Q 1100 0 847 248 
Q 594 497 594 1153 
L 594 3053 
L 172 3053 
L 172 3500 
L 594 3500 
L 594 4494 
L 1172 4494 
z
" transform="scale(0.015625)"/>
       </defs>
       <use xlink:href="#DejaVuSans-4d"/>
       <use xlink:href="#DejaVuSans-69" transform="translate(86.279297 0)"/>
       <use xlink:href="#DejaVuSans-63" transform="translate(114.0625 0)"/>
       <use xlink:href="#DejaVuSans-72" transform="translate(169.042969 0)"/>
       <use xlink:href="#DejaVuSans-6f" transform="translate(207.90625 0)"/>
       <use xlink:href="#DejaVuSans-63" transform="translate(269.087891 0)"/>
       <use xlink:href="#DejaVuSans-6f" transform="translate(324.068359 0)"/>
       <use xlink:href="#DejaVuSans-63" transform="translate(385.25 0)"/>
       <use xlink:href="#DejaVuSans-63" transform="translate(440.230469 0)"/>
       <use xlink:href="#DejaVuSans-75" transform="translate(495.210938 0)"/>
       <use xlink:href="#DejaVuSans-73" transform="translate(558.589844 0)"/>
       <use xlink:href="#DejaVuSans-20" transform="translate(610.689453 0)"/>
       <use xlink:href="#DejaVuSans-6c" transform="translate(642.476562 0)"/>
       <use xlink:href="#DejaVuSans-75" transform="translate(670.259766 0)"/>
       <use xlink:href="#DejaVuSans-74" transform="translate(733.638672 0)"/>
       <use xlink:href="#DejaVuSans-65" transform="translate(772.847656 0)"/>
       <use xlink:href="#DejaVuSans-75" transform="translate(834.371094 0)"/>
       <use xlink:href="#DejaVuSans-73" transform="translate(897.75 0)"/>
      </g>
     </g>
    </g>
    <g id="ytick_2">
     <g id="line2d_9">
      <g>
       <use xlink:href="#m701d983a0f" x="189.987775" y="119.973732" style="fill: #262626; stroke: #262626"/>
      </g>
     </g>
     <g id="text_10">
      <!-- Paracoccus salipaludis -->
      <g style="fill: #262626" transform="translate(43.57095 124.65437) scale(0.1232 -0.1232)">
       <defs>
        <path id="DejaVuSans-70" d="M 1159 525 
L 1159 -1331 
L 581 -1331 
L 581 3500 
L 1159 3500 
L 1159 2969 
Q 1341 3281 1617 3432 
Q 1894 3584 2278 3584 
Q 2916 3584 3314 3078 
Q 3713 2572 3713 1747 
Q 3713 922 3314 415 
Q 2916 -91 2278 -91 
Q 1894 -91 1617 61 
Q 1341 213 1159 525 
z
M 3116 1747 
Q 3116 2381 2855 2742 
Q 2594 3103 2138 3103 
Q 1681 3103 1420 2742 
Q 1159 2381 1159 1747 
Q 1159 1113 1420 752 
Q 1681 391 2138 391 
Q 2594 391 2855 752 
Q 3116 1113 3116 1747 
z
" transform="scale(0.015625)"/>
       </defs>
       <use xlink:href="#DejaVuSans-50"/>
       <use xlink:href="#DejaVuSans-61" transform="translate(55.802734 0)"/>
       <use xlink:href="#DejaVuSans-72" transform="translate(117.082031 0)"/>
       <use xlink:href="#DejaVuSans-61" transform="translate(158.195312 0)"/>
       <use xlink:href="#DejaVuSans-63" transform="translate(219.474609 0)"/>
       <use xlink:href="#DejaVuSans-6f" transform="translate(274.455078 0)"/>
       <use xlink:href="#DejaVuSans-63" transform="translate(335.636719 0)"/>
       <use xlink:href="#DejaVuSans-63" transform="translate(390.617188 0)"/>
       <use xlink:href="#DejaVuSans-75" transform="translate(445.597656 0)"/>
       <use xlink:href="#DejaVuSans-73" transform="translate(508.976562 0)"/>
       <use xlink:href="#DejaVuSans-20" transform="translate(561.076172 0)"/>
       <use xlink:href="#DejaVuSans-73" transform="translate(592.863281 0)"/>
       <use xlink:href="#DejaVuSans-61" transform="translate(644.962891 0)"/>
       <use xlink:href="#DejaVuSans-6c" transform="translate(706.242188 0)"/>
       <use xlink:href="#DejaVuSans-69" transform="translate(734.025391 0)"/>
       <use xlink:href="#DejaVuSans-70" transform="translate(761.808594 0)"/>
       <use xlink:href="#DejaVuSans-61" transform="translate(825.285156 0)"/>
       <use xlink:href="#DejaVuSans-6c" transform="translate(886.564453 0)"/>
       <use xlink:href="#DejaVuSans-75" transform="translate(914.347656 0)"/>
       <use xlink:href="#DejaVuSans-64" transform="translate(977.726562 0)"/>
       <use xlink:href="#DejaVuSans-69" transform="translate(1041.203125 0)"/>
       <use xlink:href="#DejaVuSans-73" transform="translate(1068.986328 0)"/>
      </g>
     </g>
    </g>
    <g id="ytick_3">
     <g id="line2d_10">
      <g>
       <use xlink:href="#m701d983a0f" x="189.987775" y="174.731012" style="fill: #262626; stroke: #262626"/>
      </g>
     </g>
     <g id="text_11">
      <!-- Solilutibacter oculi -->
      <g style="fill: #262626" transform="translate(67.4987 179.41165) scale(0.1232 -0.1232)">
       <defs>
        <path id="DejaVuSans-53" d="M 3425 4513 
L 3425 3897 
Q 3066 4069 2747 4153 
Q 2428 4238 2131 4238 
Q 1616 4238 1336 4038 
Q 1056 3838 1056 3469 
Q 1056 3159 1242 3001 
Q 1428 2844 1947 2747 
L 2328 2669 
Q 3034 2534 3370 2195 
Q 3706 1856 3706 1288 
Q 3706 609 3251 259 
Q 2797 -91 1919 -91 
Q 1588 -91 1214 -16 
Q 841 59 441 206 
L 441 856 
Q 825 641 1194 531 
Q 1563 422 1919 422 
Q 2459 422 2753 634 
Q 3047 847 3047 1241 
Q 3047 1584 2836 1778 
Q 2625 1972 2144 2069 
L 1759 2144 
Q 1053 2284 737 2584 
Q 422 2884 422 3419 
Q 422 4038 858 4394 
Q 1294 4750 2059 4750 
Q 2388 4750 2728 4690 
Q 3069 4631 3425 4513 
z
" transform="scale(0.015625)"/>
       </defs>
       <use xlink:href="#DejaVuSans-53"/>
       <use xlink:href="#DejaVuSans-6f" transform="translate(63.476562 0)"/>
       <use xlink:href="#DejaVuSans-6c" transform="translate(124.658203 0)"/>
       <use xlink:href="#DejaVuSans-69" transform="translate(152.441406 0)"/>
       <use xlink:href="#DejaVuSans-6c" transform="translate(180.224609 0)"/>
       <use xlink:href="#DejaVuSans-75" transform="translate(208.007812 0)"/>
       <use xlink:href="#DejaVuSans-74" transform="translate(271.386719 0)"/>
       <use xlink:href="#DejaVuSans-69" transform="translate(310.595703 0)"/>
       <use xlink:href="#DejaVuSans-62" transform="translate(338.378906 0)"/>
       <use xlink:href="#DejaVuSans-61" transform="translate(401.855469 0)"/>
       <use xlink:href="#DejaVuSans-63" transform="translate(463.134766 0)"/>
       <use xlink:href="#DejaVuSans-74" transform="translate(518.115234 0)"/>
       <use xlink:href="#DejaVuSans-65" transform="translate(557.324219 0)"/>
       <use xlink:href="#DejaVuSans-72" transform="translate(618.847656 0)"/>
       <use xlink:href="#DejaVuSans-20" transform="translate(659.960938 0)"/>
       <use xlink:href="#DejaVuSans-6f" transform="translate(691.748047 0)"/>
       <use xlink:href="#DejaVuSans-63" transform="translate(752.929688 0)"/>
       <use xlink:href="#DejaVuSans-75" transform="translate(807.910156 0)"/>
       <use xlink:href="#DejaVuSans-6c" transform="translate(871.289062 0)"/>
       <use xlink:href="#DejaVuSans-69" transform="translate(899.072266 0)"/>
      </g>
     </g>
    </g>
    <g id="ytick_4">
     <g id="line2d_11">
      <g>
       <use xlink:href="#m701d983a0f" x="189.987775" y="229.488292" style="fill: #262626; stroke: #262626"/>
      </g>
     </g>
     <g id="text_12">
      <!-- Brevundimonas (bin.28) -->
      <g style="fill: #262626" transform="translate(33.227925 234.16893) scale(0.1232 -0.1232)">
       <defs>
        <path id="DejaVuSans-42" d="M 1259 2228 
L 1259 519 
L 2272 519 
Q 2781 519 3026 730 
Q 3272 941 3272 1375 
Q 3272 1813 3026 2020 
Q 2781 2228 2272 2228 
L 1259 2228 
z
M 1259 4147 
L 1259 2741 
L 2194 2741 
Q 2656 2741 2882 2914 
Q 3109 3088 3109 3444 
Q 3109 3797 2882 3972 
Q 2656 4147 2194 4147 
L 1259 4147 
z
M 628 4666 
L 2241 4666 
Q 2963 4666 3353 4366 
Q 3744 4066 3744 3513 
Q 3744 3084 3544 2831 
Q 3344 2578 2956 2516 
Q 3422 2416 3680 2098 
Q 3938 1781 3938 1306 
Q 3938 681 3513 340 
Q 3088 0 2303 0 
L 628 0 
L 628 4666 
z
" transform="scale(0.015625)"/>
        <path id="DejaVuSans-76" d="M 191 3500 
L 800 3500 
L 1894 563 
L 2988 3500 
L 3597 3500 
L 2284 0 
L 1503 0 
L 191 3500 
z
" transform="scale(0.015625)"/>
        <path id="DejaVuSans-6d" d="M 3328 2828 
Q 3544 3216 3844 3400 
Q 4144 3584 4550 3584 
Q 5097 3584 5394 3201 
Q 5691 2819 5691 2113 
L 5691 0 
L 5113 0 
L 5113 2094 
Q 5113 2597 4934 2840 
Q 4756 3084 4391 3084 
Q 3944 3084 3684 2787 
Q 3425 2491 3425 1978 
L 3425 0 
L 2847 0 
L 2847 2094 
Q 2847 2600 2669 2842 
Q 2491 3084 2119 3084 
Q 1678 3084 1418 2786 
Q 1159 2488 1159 1978 
L 1159 0 
L 581 0 
L 581 3500 
L 1159 3500 
L 1159 2956 
Q 1356 3278 1631 3431 
Q 1906 3584 2284 3584 
Q 2666 3584 2933 3390 
Q 3200 3197 3328 2828 
z
" transform="scale(0.015625)"/>
        <path id="DejaVuSans-2e" d="M 684 794 
L 1344 794 
L 1344 0 
L 684 0 
L 684 794 
z
" transform="scale(0.015625)"/>
        <path id="DejaVuSans-38" d="M 2034 2216 
Q 1584 2216 1326 1975 
Q 1069 1734 1069 1313 
Q 1069 891 1326 650 
Q 1584 409 2034 409 
Q 2484 409 2743 651 
Q 3003 894 3003 1313 
Q 3003 1734 2745 1975 
Q 2488 2216 2034 2216 
z
M 1403 2484 
Q 997 2584 770 2862 
Q 544 3141 544 3541 
Q 544 4100 942 4425 
Q 1341 4750 2034 4750 
Q 2731 4750 3128 4425 
Q 3525 4100 3525 3541 
Q 3525 3141 3298 2862 
Q 3072 2584 2669 2484 
Q 3125 2378 3379 2068 
Q 3634 1759 3634 1313 
Q 3634 634 3220 271 
Q 2806 -91 2034 -91 
Q 1263 -91 848 271 
Q 434 634 434 1313 
Q 434 1759 690 2068 
Q 947 2378 1403 2484 
z
M 1172 3481 
Q 1172 3119 1398 2916 
Q 1625 2713 2034 2713 
Q 2441 2713 2670 2916 
Q 2900 3119 2900 3481 
Q 2900 3844 2670 4047 
Q 2441 4250 2034 4250 
Q 1625 4250 1398 4047 
Q 1172 3844 1172 3481 
z
" transform="scale(0.015625)"/>
       </defs>
       <use xlink:href="#DejaVuSans-42"/>
       <use xlink:href="#DejaVuSans-72" transform="translate(68.603516 0)"/>
       <use xlink:href="#DejaVuSans-65" transform="translate(107.466797 0)"/>
       <use xlink:href="#DejaVuSans-76" transform="translate(168.990234 0)"/>
       <use xlink:href="#DejaVuSans-75" transform="translate(228.169922 0)"/>
       <use xlink:href="#DejaVuSans-6e" transform="translate(291.548828 0)"/>
       <use xlink:href="#DejaVuSans-64" transform="translate(354.927734 0)"/>
       <use xlink:href="#DejaVuSans-69" transform="translate(418.404297 0)"/>
       <use xlink:href="#DejaVuSans-6d" transform="translate(446.1875 0)"/>
       <use xlink:href="#DejaVuSans-6f" transform="translate(543.599609 0)"/>
       <use xlink:href="#DejaVuSans-6e" transform="translate(604.78125 0)"/>
       <use xlink:href="#DejaVuSans-61" transform="translate(668.160156 0)"/>
       <use xlink:href="#DejaVuSans-73" transform="translate(729.439453 0)"/>
       <use xlink:href="#DejaVuSans-20" transform="translate(781.539062 0)"/>
       <use xlink:href="#DejaVuSans-28" transform="translate(813.326172 0)"/>
       <use xlink:href="#DejaVuSans-62" transform="translate(852.339844 0)"/>
       <use xlink:href="#DejaVuSans-69" transform="translate(915.816406 0)"/>
       <use xlink:href="#DejaVuSans-6e" transform="translate(943.599609 0)"/>
       <use xlink:href="#DejaVuSans-2e" transform="translate(1006.978516 0)"/>
       <use xlink:href="#DejaVuSans-32" transform="translate(1038.765625 0)"/>
       <use xlink:href="#DejaVuSans-38" transform="translate(1102.388672 0)"/>
       <use xlink:href="#DejaVuSans-29" transform="translate(1166.011719 0)"/>
      </g>
     </g>
    </g>
    <g id="ytick_5">
     <g id="line2d_12">
      <g>
       <use xlink:href="#m701d983a0f" x="189.987775" y="284.245572" style="fill: #262626; stroke: #262626"/>
      </g>
     </g>
     <g id="text_13">
      <!-- Chelonobacter (bin.28) -->
      <g style="fill: #262626" transform="translate(39.595825 288.92621) scale(0.1232 -0.1232)">
       <defs>
        <path id="DejaVuSans-43" d="M 4122 4306 
L 4122 3641 
Q 3803 3938 3442 4084 
Q 3081 4231 2675 4231 
Q 1875 4231 1450 3742 
Q 1025 3253 1025 2328 
Q 1025 1406 1450 917 
Q 1875 428 2675 428 
Q 3081 428 3442 575 
Q 3803 722 4122 1019 
L 4122 359 
Q 3791 134 3420 21 
Q 3050 -91 2638 -91 
Q 1578 -91 968 557 
Q 359 1206 359 2328 
Q 359 3453 968 4101 
Q 1578 4750 2638 4750 
Q 3056 4750 3426 4639 
Q 3797 4528 4122 4306 
z
" transform="scale(0.015625)"/>
        <path id="DejaVuSans-68" d="M 3513 2113 
L 3513 0 
L 2938 0 
L 2938 2094 
Q 2938 2591 2744 2837 
Q 2550 3084 2163 3084 
Q 1697 3084 1428 2787 
Q 1159 2491 1159 1978 
L 1159 0 
L 581 0 
L 581 4863 
L 1159 4863 
L 1159 2956 
Q 1366 3272 1645 3428 
Q 1925 3584 2291 3584 
Q 2894 3584 3203 3211 
Q 3513 2838 3513 2113 
z
" transform="scale(0.015625)"/>
       </defs>
       <use xlink:href="#DejaVuSans-43"/>
       <use xlink:href="#DejaVuSans-68" transform="translate(69.824219 0)"/>
       <use xlink:href="#DejaVuSans-65" transform="translate(133.203125 0)"/>
       <use xlink:href="#DejaVuSans-6c" transform="translate(194.726562 0)"/>
       <use xlink:href="#DejaVuSans-6f" transform="translate(222.509766 0)"/>
       <use xlink:href="#DejaVuSans-6e" transform="translate(283.691406 0)"/>
       <use xlink:href="#DejaVuSans-6f" transform="translate(347.070312 0)"/>
       <use xlink:href="#DejaVuSans-62" transform="translate(408.251953 0)"/>
       <use xlink:href="#DejaVuSans-61" transform="translate(471.728516 0)"/>
       <use xlink:href="#DejaVuSans-63" transform="translate(533.007812 0)"/>
       <use xlink:href="#DejaVuSans-74" transform="translate(587.988281 0)"/>
       <use xlink:href="#DejaVuSans-65" transform="translate(627.197266 0)"/>
       <use xlink:href="#DejaVuSans-72" transform="translate(688.720703 0)"/>
       <use xlink:href="#DejaVuSans-20" transform="translate(729.833984 0)"/>
       <use xlink:href="#DejaVuSans-28" transform="translate(761.621094 0)"/>
       <use xlink:href="#DejaVuSans-62" transform="translate(800.634766 0)"/>
       <use xlink:href="#DejaVuSans-69" transform="translate(864.111328 0)"/>
       <use xlink:href="#DejaVuSans-6e" transform="translate(891.894531 0)"/>
       <use xlink:href="#DejaVuSans-2e" transform="translate(955.273438 0)"/>
       <use xlink:href="#DejaVuSans-32" transform="translate(987.060547 0)"/>
       <use xlink:href="#DejaVuSans-38" transform="translate(1050.683594 0)"/>
       <use xlink:href="#DejaVuSans-29" transform="translate(1114.306641 0)"/>
      </g>
     </g>
    </g>
   </g>
   <g id="patch_3">
    <path d="M 189.987775 43.31354 
L 418.164232 43.31354 
L 418.164232 57.915482 
L 189.987775 57.915482 
z
" clip-path="url(#pf0db0c3488)" style="fill: #debca9; stroke: #ffffff; stroke-width: 0.8; stroke-linejoin: miter"/>
   </g>
   <g id="patch_4">
    <path d="M 189.987775 98.07082 
L 304.781688 98.07082 
L 304.781688 112.672762 
L 189.987775 112.672762 
z
" clip-path="url(#pf0db0c3488)" style="fill: #debca9; stroke: #ffffff; stroke-width: 0.8; stroke-linejoin: miter"/>
   </g>
   <g id="patch_5">
    <path d="M 189.987775 152.8281 
L 304.781688 152.8281 
L 304.781688 167.430042 
L 189.987775 167.430042 
z
" clip-path="url(#pf0db0c3488)" style="fill: #debca9; stroke: #ffffff; stroke-width: 0.8; stroke-linejoin: miter"/>
   </g>
   <g id="patch_6">
    <path d="M 189.987775 207.58538 
L 304.439984 207.58538 
L 304.439984 222.187322 
L 189.987775 222.187322 
z
" clip-path="url(#pf0db0c3488)" style="fill: #debca9; stroke: #ffffff; stroke-width: 0.8; stroke-linejoin: miter"/>
   </g>
   <g id="patch_7">
    <path d="M 189.987775 262.34266 
L 304.439984 262.34266 
L 304.439984 276.944602 
L 189.987775 276.944602 
z
" clip-path="url(#pf0db0c3488)" style="fill: #debca9; stroke: #ffffff; stroke-width: 0.8; stroke-linejoin: miter"/>
   </g>
   <g id="patch_8">
    <path d="M 189.987775 57.915482 
L 207.047611 57.915482 
L 207.047611 72.517423 
L 189.987775 72.517423 
z
" clip-path="url(#pf0db0c3488)" style="fill: #accdaa; stroke: #ffffff; stroke-width: 0.8; stroke-linejoin: miter"/>
   </g>
   <g id="patch_9">
    <path d="M 189.987775 112.672762 
L 212.218968 112.672762 
L 212.218968 127.274703 
L 189.987775 127.274703 
z
" clip-path="url(#pf0db0c3488)" style="fill: #accdaa; stroke: #ffffff; stroke-width: 0.8; stroke-linejoin: miter"/>
   </g>
   <g id="patch_10">
    <path d="M 189.987775 167.430042 
L 212.218968 167.430042 
L 212.218968 182.031983 
L 189.987775 182.031983 
z
" clip-path="url(#pf0db0c3488)" style="fill: #accdaa; stroke: #ffffff; stroke-width: 0.8; stroke-linejoin: miter"/>
   </g>
   <g id="patch_11">
    <path d="M 189.987775 127.274703 
L 673.949299 127.274703 
L 673.949299 141.876644 
L 189.987775 141.876644 
z
" clip-path="url(#pf0db0c3488)" style="fill: #9aa7c7; stroke: #ffffff; stroke-width: 0.8; stroke-linejoin: miter"/>
   </g>
   <g id="patch_12">
    <path d="M 189.987775 182.031983 
L 673.949299 182.031983 
L 673.949299 196.633924 
L 189.987775 196.633924 
z
" clip-path="url(#pf0db0c3488)" style="fill: #9aa7c7; stroke: #ffffff; stroke-width: 0.8; stroke-linejoin: miter"/>
   </g>
   <g id="patch_13">
    <path d="M 189.987775 65.216452 
L 189.987775 65.216452 
L 189.987775 65.216452 
L 189.987775 65.216452 
z
" clip-path="url(#pf0db0c3488)" style="fill: #debca9; stroke: #ffffff; stroke-width: 0.8; stroke-linejoin: miter"/>
   </g>
   <g id="patch_14">
    <path d="M 189.987775 65.216452 
L 189.987775 65.216452 
L 189.987775 65.216452 
L 189.987775 65.216452 
z
" clip-path="url(#pf0db0c3488)" style="fill: #accdaa; stroke: #ffffff; stroke-width: 0.8; stroke-linejoin: miter"/>
   </g>
   <g id="patch_15">
    <path d="M 189.987775 65.216452 
L 189.987775 65.216452 
L 189.987775 65.216452 
L 189.987775 65.216452 
z
" clip-path="url(#pf0db0c3488)" style="fill: #9aa7c7; stroke: #ffffff; stroke-width: 0.8; stroke-linejoin: miter"/>
   </g>
   <g id="line2d_13">
    <path clip-path="url(#pf0db0c3488)" style="fill: none; stroke: #424242; stroke-width: 1.8; stroke-linecap: round"/>
   </g>
   <g id="line2d_14">
    <path clip-path="url(#pf0db0c3488)" style="fill: none; stroke: #424242; stroke-width: 1.8; stroke-linecap: round"/>
   </g>
   <g id="line2d_15">
    <path clip-path="url(#pf0db0c3488)" style="fill: none; stroke: #424242; stroke-width: 1.8; stroke-linecap: round"/>
   </g>
   <g id="line2d_16">
    <path clip-path="url(#pf0db0c3488)" style="fill: none; stroke: #424242; stroke-width: 1.8; stroke-linecap: round"/>
   </g>
   <g id="line2d_17">
    <path clip-path="url(#pf0db0c3488)" style="fill: none; stroke: #424242; stroke-width: 1.8; stroke-linecap: round"/>
   </g>
   <g id="line2d_18">
    <path clip-path="url(#pf0db0c3488)" style="fill: none; stroke: #424242; stroke-width: 1.8; stroke-linecap: round"/>
   </g>
   <g id="line2d_19">
    <path clip-path="url(#pf0db0c3488)" style="fill: none; stroke: #424242; stroke-width: 1.8; stroke-linecap: round"/>
   </g>
   <g id="line2d_20">
    <path clip-path="url(#pf0db0c3488)" style="fill: none; stroke: #424242; stroke-width: 1.8; stroke-linecap: round"/>
   </g>
   <g id="line2d_21">
    <path clip-path="url(#pf0db0c3488)" style="fill: none; stroke: #424242; stroke-width: 1.8; stroke-linecap: round"/>
   </g>
   <g id="line2d_22">
    <path clip-path="url(#pf0db0c3488)" style="fill: none; stroke: #424242; stroke-width: 1.8; stroke-linecap: round"/>
   </g>
   <g id="patch_16">
    <path d="M 189.987775 311.624212 
L 189.987775 37.837812 
" style="fill: none; stroke: #262626; stroke-linejoin: miter; stroke-linecap: square"/>
   </g>
   <g id="patch_17">
    <path d="M 189.987775 311.624212 
L 698.147375 311.624212 
" style="fill: none; stroke: #262626; stroke-linejoin: miter; stroke-linecap: square"/>
   </g>
   <g id="text_14">
    <!-- Top Species in NC -->
    <g style="fill: #262626" transform="translate(189.987775 17.837812) scale(0.14 -0.14)">
     <defs>
      <path id="DejaVuSans-Bold-54" d="M 31 4666 
L 4331 4666 
L 4331 3756 
L 2784 3756 
L 2784 0 
L 1581 0 
L 1581 3756 
L 31 3756 
L 31 4666 
z
" transform="scale(0.015625)"/>
      <path id="DejaVuSans-Bold-6f" d="M 2203 2784 
Q 1831 2784 1636 2517 
Q 1441 2250 1441 1747 
Q 1441 1244 1636 976 
Q 1831 709 2203 709 
Q 2569 709 2762 976 
Q 2956 1244 2956 1747 
Q 2956 2250 2762 2517 
Q 2569 2784 2203 2784 
z
M 2203 3584 
Q 3106 3584 3614 3096 
Q 4122 2609 4122 1747 
Q 4122 884 3614 396 
Q 3106 -91 2203 -91 
Q 1297 -91 786 396 
Q 275 884 275 1747 
Q 275 2609 786 3096 
Q 1297 3584 2203 3584 
z
" transform="scale(0.015625)"/>
      <path id="DejaVuSans-Bold-70" d="M 1656 506 
L 1656 -1331 
L 538 -1331 
L 538 3500 
L 1656 3500 
L 1656 2988 
Q 1888 3294 2169 3439 
Q 2450 3584 2816 3584 
Q 3463 3584 3878 3070 
Q 4294 2556 4294 1747 
Q 4294 938 3878 423 
Q 3463 -91 2816 -91 
Q 2450 -91 2169 54 
Q 1888 200 1656 506 
z
M 2400 2772 
Q 2041 2772 1848 2508 
Q 1656 2244 1656 1747 
Q 1656 1250 1848 986 
Q 2041 722 2400 722 
Q 2759 722 2948 984 
Q 3138 1247 3138 1747 
Q 3138 2247 2948 2509 
Q 2759 2772 2400 2772 
z
" transform="scale(0.015625)"/>
      <path id="DejaVuSans-Bold-20" transform="scale(0.015625)"/>
      <path id="DejaVuSans-Bold-53" d="M 3834 4519 
L 3834 3531 
Q 3450 3703 3084 3790 
Q 2719 3878 2394 3878 
Q 1963 3878 1756 3759 
Q 1550 3641 1550 3391 
Q 1550 3203 1689 3098 
Q 1828 2994 2194 2919 
L 2706 2816 
Q 3484 2659 3812 2340 
Q 4141 2022 4141 1434 
Q 4141 663 3683 286 
Q 3225 -91 2284 -91 
Q 1841 -91 1394 -6 
Q 947 78 500 244 
L 500 1259 
Q 947 1022 1364 901 
Q 1781 781 2169 781 
Q 2563 781 2772 912 
Q 2981 1044 2981 1288 
Q 2981 1506 2839 1625 
Q 2697 1744 2272 1838 
L 1806 1941 
Q 1106 2091 782 2419 
Q 459 2747 459 3303 
Q 459 4000 909 4375 
Q 1359 4750 2203 4750 
Q 2588 4750 2994 4692 
Q 3400 4634 3834 4519 
z
" transform="scale(0.015625)"/>
      <path id="DejaVuSans-Bold-65" d="M 4031 1759 
L 4031 1441 
L 1416 1441 
Q 1456 1047 1700 850 
Q 1944 653 2381 653 
Q 2734 653 3104 758 
Q 3475 863 3866 1075 
L 3866 213 
Q 3469 63 3072 -14 
Q 2675 -91 2278 -91 
Q 1328 -91 801 392 
Q 275 875 275 1747 
Q 275 2603 792 3093 
Q 1309 3584 2216 3584 
Q 3041 3584 3536 3087 
Q 4031 2591 4031 1759 
z
M 2881 2131 
Q 2881 2450 2695 2645 
Q 2509 2841 2209 2841 
Q 1884 2841 1681 2658 
Q 1478 2475 1428 2131 
L 2881 2131 
z
" transform="scale(0.015625)"/>
      <path id="DejaVuSans-Bold-63" d="M 3366 3391 
L 3366 2478 
Q 3138 2634 2908 2709 
Q 2678 2784 2431 2784 
Q 1963 2784 1702 2511 
Q 1441 2238 1441 1747 
Q 1441 1256 1702 982 
Q 1963 709 2431 709 
Q 2694 709 2930 787 
Q 3166 866 3366 1019 
L 3366 103 
Q 3103 6 2833 -42 
Q 2563 -91 2291 -91 
Q 1344 -91 809 395 
Q 275 881 275 1747 
Q 275 2613 809 3098 
Q 1344 3584 2291 3584 
Q 2566 3584 2833 3536 
Q 3100 3488 3366 3391 
z
" transform="scale(0.015625)"/>
      <path id="DejaVuSans-Bold-69" d="M 538 3500 
L 1656 3500 
L 1656 0 
L 538 0 
L 538 3500 
z
M 538 4863 
L 1656 4863 
L 1656 3950 
L 538 3950 
L 538 4863 
z
" transform="scale(0.015625)"/>
      <path id="DejaVuSans-Bold-73" d="M 3272 3391 
L 3272 2541 
Q 2913 2691 2578 2766 
Q 2244 2841 1947 2841 
Q 1628 2841 1473 2761 
Q 1319 2681 1319 2516 
Q 1319 2381 1436 2309 
Q 1553 2238 1856 2203 
L 2053 2175 
Q 2913 2066 3209 1816 
Q 3506 1566 3506 1031 
Q 3506 472 3093 190 
Q 2681 -91 1863 -91 
Q 1516 -91 1145 -36 
Q 775 19 384 128 
L 384 978 
Q 719 816 1070 734 
Q 1422 653 1784 653 
Q 2113 653 2278 743 
Q 2444 834 2444 1013 
Q 2444 1163 2330 1236 
Q 2216 1309 1875 1350 
L 1678 1375 
Q 931 1469 631 1722 
Q 331 1975 331 2491 
Q 331 3047 712 3315 
Q 1094 3584 1881 3584 
Q 2191 3584 2531 3537 
Q 2872 3491 3272 3391 
z
" transform="scale(0.015625)"/>
      <path id="DejaVuSans-Bold-6e" d="M 4056 2131 
L 4056 0 
L 2931 0 
L 2931 347 
L 2931 1631 
Q 2931 2084 2911 2256 
Q 2891 2428 2841 2509 
Q 2775 2619 2662 2680 
Q 2550 2741 2406 2741 
Q 2056 2741 1856 2470 
Q 1656 2200 1656 1722 
L 1656 0 
L 538 0 
L 538 3500 
L 1656 3500 
L 1656 2988 
Q 1909 3294 2193 3439 
Q 2478 3584 2822 3584 
Q 3428 3584 3742 3212 
Q 4056 2841 4056 2131 
z
" transform="scale(0.015625)"/>
      <path id="DejaVuSans-Bold-4e" d="M 588 4666 
L 1931 4666 
L 3628 1466 
L 3628 4666 
L 4769 4666 
L 4769 0 
L 3425 0 
L 1728 3200 
L 1728 0 
L 588 0 
L 588 4666 
z
" transform="scale(0.015625)"/>
      <path id="DejaVuSans-Bold-43" d="M 4288 256 
Q 3956 84 3597 -3 
Q 3238 -91 2847 -91 
Q 1681 -91 1000 561 
Q 319 1213 319 2328 
Q 319 3447 1000 4098 
Q 1681 4750 2847 4750 
Q 3238 4750 3597 4662 
Q 3956 4575 4288 4403 
L 4288 3438 
Q 3953 3666 3628 3772 
Q 3303 3878 2944 3878 
Q 2300 3878 1931 3465 
Q 1563 3053 1563 2328 
Q 1563 1606 1931 1193 
Q 2300 781 2944 781 
Q 3303 781 3628 887 
Q 3953 994 4288 1222 
L 4288 256 
z
" transform="scale(0.015625)"/>
     </defs>
     <use xlink:href="#DejaVuSans-Bold-54"/>
     <use xlink:href="#DejaVuSans-Bold-6f" transform="translate(54.962891 0)"/>
     <use xlink:href="#DejaVuSans-Bold-70" transform="translate(123.664062 0)"/>
     <use xlink:href="#DejaVuSans-Bold-20" transform="translate(195.246094 0)"/>
     <use xlink:href="#DejaVuSans-Bold-53" transform="translate(230.060547 0)"/>
     <use xlink:href="#DejaVuSans-Bold-70" transform="translate(302.082031 0)"/>
     <use xlink:href="#DejaVuSans-Bold-65" transform="translate(373.664062 0)"/>
     <use xlink:href="#DejaVuSans-Bold-63" transform="translate(441.486328 0)"/>
     <use xlink:href="#DejaVuSans-Bold-69" transform="translate(500.763672 0)"/>
     <use xlink:href="#DejaVuSans-Bold-65" transform="translate(535.041016 0)"/>
     <use xlink:href="#DejaVuSans-Bold-73" transform="translate(602.863281 0)"/>
     <use xlink:href="#DejaVuSans-Bold-20" transform="translate(662.384766 0)"/>
     <use xlink:href="#DejaVuSans-Bold-69" transform="translate(697.199219 0)"/>
     <use xlink:href="#DejaVuSans-Bold-6e" transform="translate(731.476562 0)"/>
     <use xlink:href="#DejaVuSans-Bold-20" transform="translate(802.667969 0)"/>
     <use xlink:href="#DejaVuSans-Bold-4e" transform="translate(837.482422 0)"/>
     <use xlink:href="#DejaVuSans-Bold-43" transform="translate(921.173828 0)"/>
    </g>
   </g>
  </g>
  <g id="axes_2">
   <g id="patch_18">
    <path d="M 189.987775 666.785812 
L 698.147375 666.785812 
L 698.147375 392.999412 
L 189.987775 392.999412 
z
" style="fill: #ffffff"/>
   </g>
   <g id="matplotlib.axis_3">
    <g id="xtick_8">
     <g id="line2d_23">
      <g>
       <use xlink:href="#me797ee3989" x="189.987775" y="666.785812" style="fill: #262626; stroke: #262626"/>
      </g>
     </g>
     <g id="text_15">
      <!-- 0 -->
      <g style="fill: #262626" transform="translate(186.068475 684.447087) scale(0.1232 -0.1232)">
       <use xlink:href="#DejaVuSans-30"/>
      </g>
     </g>
    </g>
    <g id="xtick_9">
     <g id="line2d_24">
      <g>
       <use xlink:href="#me797ee3989" x="248.444082" y="666.785812" style="fill: #262626; stroke: #262626"/>
      </g>
     </g>
     <g id="text_16">
      <!-- 20 k -->
      <g style="fill: #262626" transform="translate(235.080732 684.447087) scale(0.1232 -0.1232)">
       <use xlink:href="#DejaVuSans-32"/>
       <use xlink:href="#DejaVuSans-30" transform="translate(63.623047 0)"/>
       <use xlink:href="#DejaVuSans-20" transform="translate(127.246094 0)"/>
       <use xlink:href="#DejaVuSans-6b" transform="translate(159.033203 0)"/>
      </g>
     </g>
    </g>
    <g id="xtick_10">
     <g id="line2d_25">
      <g>
       <use xlink:href="#me797ee3989" x="306.90039" y="666.785812" style="fill: #262626; stroke: #262626"/>
      </g>
     </g>
     <g id="text_17">
      <!-- 40 k -->
      <g style="fill: #262626" transform="translate(293.53704 684.447087) scale(0.1232 -0.1232)">
       <use xlink:href="#DejaVuSans-34"/>
       <use xlink:href="#DejaVuSans-30" transform="translate(63.623047 0)"/>
       <use xlink:href="#DejaVuSans-20" transform="translate(127.246094 0)"/>
       <use xlink:href="#DejaVuSans-6b" transform="translate(159.033203 0)"/>
      </g>
     </g>
    </g>
    <g id="xtick_11">
     <g id="line2d_26">
      <g>
       <use xlink:href="#me797ee3989" x="365.356697" y="666.785812" style="fill: #262626; stroke: #262626"/>
      </g>
     </g>
     <g id="text_18">
      <!-- 60 k -->
      <g style="fill: #262626" transform="translate(351.993347 684.447087) scale(0.1232 -0.1232)">
       <use xlink:href="#DejaVuSans-36"/>
       <use xlink:href="#DejaVuSans-30" transform="translate(63.623047 0)"/>
       <use xlink:href="#DejaVuSans-20" transform="translate(127.246094 0)"/>
       <use xlink:href="#DejaVuSans-6b" transform="translate(159.033203 0)"/>
      </g>
     </g>
    </g>
    <g id="xtick_12">
     <g id="line2d_27">
      <g>
       <use xlink:href="#me797ee3989" x="423.813005" y="666.785812" style="fill: #262626; stroke: #262626"/>
      </g>
     </g>
     <g id="text_19">
      <!-- 80 k -->
      <g style="fill: #262626" transform="translate(410.449655 684.447087) scale(0.1232 -0.1232)">
       <use xlink:href="#DejaVuSans-38"/>
       <use xlink:href="#DejaVuSans-30" transform="translate(63.623047 0)"/>
       <use xlink:href="#DejaVuSans-20" transform="translate(127.246094 0)"/>
       <use xlink:href="#DejaVuSans-6b" transform="translate(159.033203 0)"/>
      </g>
     </g>
    </g>
    <g id="xtick_13">
     <g id="line2d_28">
      <g>
       <use xlink:href="#me797ee3989" x="482.269312" y="666.785812" style="fill: #262626; stroke: #262626"/>
      </g>
     </g>
     <g id="text_20">
      <!-- 100 k -->
      <g style="fill: #262626" transform="translate(464.986662 684.447087) scale(0.1232 -0.1232)">
       <use xlink:href="#DejaVuSans-31"/>
       <use xlink:href="#DejaVuSans-30" transform="translate(63.623047 0)"/>
       <use xlink:href="#DejaVuSans-30" transform="translate(127.246094 0)"/>
       <use xlink:href="#DejaVuSans-20" transform="translate(190.869141 0)"/>
       <use xlink:href="#DejaVuSans-6b" transform="translate(222.65625 0)"/>
      </g>
     </g>
    </g>
    <g id="xtick_14">
     <g id="line2d_29">
      <g>
       <use xlink:href="#me797ee3989" x="540.725619" y="666.785812" style="fill: #262626; stroke: #262626"/>
      </g>
     </g>
     <g id="text_21">
      <!-- 120 k -->
      <g style="fill: #262626" transform="translate(523.442969 684.447087) scale(0.1232 -0.1232)">
       <use xlink:href="#DejaVuSans-31"/>
       <use xlink:href="#DejaVuSans-32" transform="translate(63.623047 0)"/>
       <use xlink:href="#DejaVuSans-30" transform="translate(127.246094 0)"/>
       <use xlink:href="#DejaVuSans-20" transform="translate(190.869141 0)"/>
       <use xlink:href="#DejaVuSans-6b" transform="translate(222.65625 0)"/>
      </g>
     </g>
    </g>
    <g id="xtick_15">
     <g id="line2d_30">
      <g>
       <use xlink:href="#me797ee3989" x="599.181927" y="666.785812" style="fill: #262626; stroke: #262626"/>
      </g>
     </g>
     <g id="text_22">
      <!-- 140 k -->
      <g style="fill: #262626" transform="translate(581.899277 684.447087) scale(0.1232 -0.1232)">
       <use xlink:href="#DejaVuSans-31"/>
       <use xlink:href="#DejaVuSans-34" transform="translate(63.623047 0)"/>
       <use xlink:href="#DejaVuSans-30" transform="translate(127.246094 0)"/>
       <use xlink:href="#DejaVuSans-20" transform="translate(190.869141 0)"/>
       <use xlink:href="#DejaVuSans-6b" transform="translate(222.65625 0)"/>
      </g>
     </g>
    </g>
    <g id="xtick_16">
     <g id="line2d_31">
      <g>
       <use xlink:href="#me797ee3989" x="657.638234" y="666.785812" style="fill: #262626; stroke: #262626"/>
      </g>
     </g>
     <g id="text_23">
      <!-- 160 k -->
      <g style="fill: #262626" transform="translate(640.355584 684.447087) scale(0.1232 -0.1232)">
       <use xlink:href="#DejaVuSans-31"/>
       <use xlink:href="#DejaVuSans-36" transform="translate(63.623047 0)"/>
       <use xlink:href="#DejaVuSans-30" transform="translate(127.246094 0)"/>
       <use xlink:href="#DejaVuSans-20" transform="translate(190.869141 0)"/>
       <use xlink:href="#DejaVuSans-6b" transform="translate(222.65625 0)"/>
      </g>
     </g>
    </g>
    <g id="text_24">
     <!-- Mean Abundance (RPKM) -->
     <g style="fill: #262626" transform="translate(368.527575 700.127387) scale(0.12 -0.12)">
      <use xlink:href="#DejaVuSans-4d"/>
      <use xlink:href="#DejaVuSans-65" transform="translate(86.279297 0)"/>
      <use xlink:href="#DejaVuSans-61" transform="translate(147.802734 0)"/>
      <use xlink:href="#DejaVuSans-6e" transform="translate(209.082031 0)"/>
      <use xlink:href="#DejaVuSans-20" transform="translate(272.460938 0)"/>
      <use xlink:href="#DejaVuSans-41" transform="translate(304.248047 0)"/>
      <use xlink:href="#DejaVuSans-62" transform="translate(372.65625 0)"/>
      <use xlink:href="#DejaVuSans-75" transform="translate(436.132812 0)"/>
      <use xlink:href="#DejaVuSans-6e" transform="translate(499.511719 0)"/>
      <use xlink:href="#DejaVuSans-64" transform="translate(562.890625 0)"/>
      <use xlink:href="#DejaVuSans-61" transform="translate(626.367188 0)"/>
      <use xlink:href="#DejaVuSans-6e" transform="translate(687.646484 0)"/>
      <use xlink:href="#DejaVuSans-63" transform="translate(751.025391 0)"/>
      <use xlink:href="#DejaVuSans-65" transform="translate(806.005859 0)"/>
      <use xlink:href="#DejaVuSans-20" transform="translate(867.529297 0)"/>
      <use xlink:href="#DejaVuSans-28" transform="translate(899.316406 0)"/>
      <use xlink:href="#DejaVuSans-52" transform="translate(938.330078 0)"/>
      <use xlink:href="#DejaVuSans-50" transform="translate(1007.8125 0)"/>
      <use xlink:href="#DejaVuSans-4b" transform="translate(1068.115234 0)"/>
      <use xlink:href="#DejaVuSans-4d" transform="translate(1133.691406 0)"/>
      <use xlink:href="#DejaVuSans-29" transform="translate(1219.970703 0)"/>
     </g>
    </g>
   </g>
   <g id="matplotlib.axis_4">
    <g id="ytick_6">
     <g id="line2d_32">
      <g>
       <use xlink:href="#m701d983a0f" x="189.987775" y="420.378052" style="fill: #262626; stroke: #262626"/>
      </g>
     </g>
     <g id="text_25">
      <!-- Veillonella parvula_F -->
      <g style="fill: #262626" transform="translate(55.37505 425.05869) scale(0.1232 -0.1232)">
       <defs>
        <path id="DejaVuSans-56" d="M 1831 0 
L 50 4666 
L 709 4666 
L 2188 738 
L 3669 4666 
L 4325 4666 
L 2547 0 
L 1831 0 
z
" transform="scale(0.015625)"/>
        <path id="DejaVuSans-5f" d="M 3263 -1063 
L 3263 -1509 
L -63 -1509 
L -63 -1063 
L 3263 -1063 
z
" transform="scale(0.015625)"/>
        <path id="DejaVuSans-46" d="M 628 4666 
L 3309 4666 
L 3309 4134 
L 1259 4134 
L 1259 2759 
L 3109 2759 
L 3109 2228 
L 1259 2228 
L 1259 0 
L 628 0 
L 628 4666 
z
" transform="scale(0.015625)"/>
       </defs>
       <use xlink:href="#DejaVuSans-56"/>
       <use xlink:href="#DejaVuSans-65" transform="translate(60.658203 0)"/>
       <use xlink:href="#DejaVuSans-69" transform="translate(122.181641 0)"/>
       <use xlink:href="#DejaVuSans-6c" transform="translate(149.964844 0)"/>
       <use xlink:href="#DejaVuSans-6c" transform="translate(177.748047 0)"/>
       <use xlink:href="#DejaVuSans-6f" transform="translate(205.53125 0)"/>
       <use xlink:href="#DejaVuSans-6e" transform="translate(266.712891 0)"/>
       <use xlink:href="#DejaVuSans-65" transform="translate(330.091797 0)"/>
       <use xlink:href="#DejaVuSans-6c" transform="translate(391.615234 0)"/>
       <use xlink:href="#DejaVuSans-6c" transform="translate(419.398438 0)"/>
       <use xlink:href="#DejaVuSans-61" transform="translate(447.181641 0)"/>
       <use xlink:href="#DejaVuSans-20" transform="translate(508.460938 0)"/>
       <use xlink:href="#DejaVuSans-70" transform="translate(540.248047 0)"/>
       <use xlink:href="#DejaVuSans-61" transform="translate(603.724609 0)"/>
       <use xlink:href="#DejaVuSans-72" transform="translate(665.003906 0)"/>
       <use xlink:href="#DejaVuSans-76" transform="translate(706.117188 0)"/>
       <use xlink:href="#DejaVuSans-75" transform="translate(765.296875 0)"/>
       <use xlink:href="#DejaVuSans-6c" transform="translate(828.675781 0)"/>
       <use xlink:href="#DejaVuSans-61" transform="translate(856.458984 0)"/>
       <use xlink:href="#DejaVuSans-5f" transform="translate(917.738281 0)"/>
       <use xlink:href="#DejaVuSans-46" transform="translate(967.738281 0)"/>
      </g>
     </g>
    </g>
    <g id="ytick_7">
     <g id="line2d_33">
      <g>
       <use xlink:href="#m701d983a0f" x="189.987775" y="475.135332" style="fill: #262626; stroke: #262626"/>
      </g>
     </g>
     <g id="text_26">
      <!-- Moraxella porci -->
      <g style="fill: #262626" transform="translate(87.763175 479.81597) scale(0.1232 -0.1232)">
       <defs>
        <path id="DejaVuSans-78" d="M 3513 3500 
L 2247 1797 
L 3578 0 
L 2900 0 
L 1881 1375 
L 863 0 
L 184 0 
L 1544 1831 
L 300 3500 
L 978 3500 
L 1906 2253 
L 2834 3500 
L 3513 3500 
z
" transform="scale(0.015625)"/>
       </defs>
       <use xlink:href="#DejaVuSans-4d"/>
       <use xlink:href="#DejaVuSans-6f" transform="translate(86.279297 0)"/>
       <use xlink:href="#DejaVuSans-72" transform="translate(147.460938 0)"/>
       <use xlink:href="#DejaVuSans-61" transform="translate(188.574219 0)"/>
       <use xlink:href="#DejaVuSans-78" transform="translate(249.853516 0)"/>
       <use xlink:href="#DejaVuSans-65" transform="translate(305.908203 0)"/>
       <use xlink:href="#DejaVuSans-6c" transform="translate(367.431641 0)"/>
       <use xlink:href="#DejaVuSans-6c" transform="translate(395.214844 0)"/>
       <use xlink:href="#DejaVuSans-61" transform="translate(422.998047 0)"/>
       <use xlink:href="#DejaVuSans-20" transform="translate(484.277344 0)"/>
       <use xlink:href="#DejaVuSans-70" transform="translate(516.064453 0)"/>
       <use xlink:href="#DejaVuSans-6f" transform="translate(579.541016 0)"/>
       <use xlink:href="#DejaVuSans-72" transform="translate(640.722656 0)"/>
       <use xlink:href="#DejaVuSans-63" transform="translate(679.585938 0)"/>
       <use xlink:href="#DejaVuSans-69" transform="translate(734.566406 0)"/>
      </g>
     </g>
    </g>
    <g id="ytick_8">
     <g id="line2d_34">
      <g>
       <use xlink:href="#m701d983a0f" x="189.987775" y="529.892612" style="fill: #262626; stroke: #262626"/>
      </g>
     </g>
     <g id="text_27">
      <!-- Acinetobacter sp947493735 -->
      <g style="fill: #262626" transform="translate(7.2 534.57325) scale(0.1232 -0.1232)">
       <defs>
        <path id="DejaVuSans-39" d="M 703 97 
L 703 672 
Q 941 559 1184 500 
Q 1428 441 1663 441 
Q 2288 441 2617 861 
Q 2947 1281 2994 2138 
Q 2813 1869 2534 1725 
Q 2256 1581 1919 1581 
Q 1219 1581 811 2004 
Q 403 2428 403 3163 
Q 403 3881 828 4315 
Q 1253 4750 1959 4750 
Q 2769 4750 3195 4129 
Q 3622 3509 3622 2328 
Q 3622 1225 3098 567 
Q 2575 -91 1691 -91 
Q 1453 -91 1209 -44 
Q 966 3 703 97 
z
M 1959 2075 
Q 2384 2075 2632 2365 
Q 2881 2656 2881 3163 
Q 2881 3666 2632 3958 
Q 2384 4250 1959 4250 
Q 1534 4250 1286 3958 
Q 1038 3666 1038 3163 
Q 1038 2656 1286 2365 
Q 1534 2075 1959 2075 
z
" transform="scale(0.015625)"/>
        <path id="DejaVuSans-37" d="M 525 4666 
L 3525 4666 
L 3525 4397 
L 1831 0 
L 1172 0 
L 2766 4134 
L 525 4134 
L 525 4666 
z
" transform="scale(0.015625)"/>
       </defs>
       <use xlink:href="#DejaVuSans-41"/>
       <use xlink:href="#DejaVuSans-63" transform="translate(66.658203 0)"/>
       <use xlink:href="#DejaVuSans-69" transform="translate(121.638672 0)"/>
       <use xlink:href="#DejaVuSans-6e" transform="translate(149.421875 0)"/>
       <use xlink:href="#DejaVuSans-65" transform="translate(212.800781 0)"/>
       <use xlink:href="#DejaVuSans-74" transform="translate(274.324219 0)"/>
       <use xlink:href="#DejaVuSans-6f" transform="translate(313.533203 0)"/>
       <use xlink:href="#DejaVuSans-62" transform="translate(374.714844 0)"/>
       <use xlink:href="#DejaVuSans-61" transform="translate(438.191406 0)"/>
       <use xlink:href="#DejaVuSans-63" transform="translate(499.470703 0)"/>
       <use xlink:href="#DejaVuSans-74" transform="translate(554.451172 0)"/>
       <use xlink:href="#DejaVuSans-65" transform="translate(593.660156 0)"/>
       <use xlink:href="#DejaVuSans-72" transform="translate(655.183594 0)"/>
       <use xlink:href="#DejaVuSans-20" transform="translate(696.296875 0)"/>
       <use xlink:href="#DejaVuSans-73" transform="translate(728.083984 0)"/>
       <use xlink:href="#DejaVuSans-70" transform="translate(780.183594 0)"/>
       <use xlink:href="#DejaVuSans-39" transform="translate(843.660156 0)"/>
       <use xlink:href="#DejaVuSans-34" transform="translate(907.283203 0)"/>
       <use xlink:href="#DejaVuSans-37" transform="translate(970.90625 0)"/>
       <use xlink:href="#DejaVuSans-34" transform="translate(1034.529297 0)"/>
       <use xlink:href="#DejaVuSans-39" transform="translate(1098.152344 0)"/>
       <use xlink:href="#DejaVuSans-33" transform="translate(1161.775391 0)"/>
       <use xlink:href="#DejaVuSans-37" transform="translate(1225.398438 0)"/>
       <use xlink:href="#DejaVuSans-33" transform="translate(1289.021484 0)"/>
       <use xlink:href="#DejaVuSans-35" transform="translate(1352.644531 0)"/>
      </g>
     </g>
    </g>
    <g id="ytick_9">
     <g id="line2d_35">
      <g>
       <use xlink:href="#m701d983a0f" x="189.987775" y="584.649892" style="fill: #262626; stroke: #262626"/>
      </g>
     </g>
     <g id="text_28">
      <!-- Fusobacterium (bin.32) -->
      <g style="fill: #262626" transform="translate(38.490875 589.33053) scale(0.1232 -0.1232)">
       <use xlink:href="#DejaVuSans-46"/>
       <use xlink:href="#DejaVuSans-75" transform="translate(52.019531 0)"/>
       <use xlink:href="#DejaVuSans-73" transform="translate(115.398438 0)"/>
       <use xlink:href="#DejaVuSans-6f" transform="translate(167.498047 0)"/>
       <use xlink:href="#DejaVuSans-62" transform="translate(228.679688 0)"/>
       <use xlink:href="#DejaVuSans-61" transform="translate(292.15625 0)"/>
       <use xlink:href="#DejaVuSans-63" transform="translate(353.435547 0)"/>
       <use xlink:href="#DejaVuSans-74" transform="translate(408.416016 0)"/>
       <use xlink:href="#DejaVuSans-65" transform="translate(447.625 0)"/>
       <use xlink:href="#DejaVuSans-72" transform="translate(509.148438 0)"/>
       <use xlink:href="#DejaVuSans-69" transform="translate(550.261719 0)"/>
       <use xlink:href="#DejaVuSans-75" transform="translate(578.044922 0)"/>
       <use xlink:href="#DejaVuSans-6d" transform="translate(641.423828 0)"/>
       <use xlink:href="#DejaVuSans-20" transform="translate(738.835938 0)"/>
       <use xlink:href="#DejaVuSans-28" transform="translate(770.623047 0)"/>
       <use xlink:href="#DejaVuSans-62" transform="translate(809.636719 0)"/>
       <use xlink:href="#DejaVuSans-69" transform="translate(873.113281 0)"/>
       <use xlink:href="#DejaVuSans-6e" transform="translate(900.896484 0)"/>
       <use xlink:href="#DejaVuSans-2e" transform="translate(964.275391 0)"/>
       <use xlink:href="#DejaVuSans-33" transform="translate(996.0625 0)"/>
       <use xlink:href="#DejaVuSans-32" transform="translate(1059.685547 0)"/>
       <use xlink:href="#DejaVuSans-29" transform="translate(1123.308594 0)"/>
      </g>
     </g>
    </g>
    <g id="ytick_10">
     <g id="line2d_36">
      <g>
       <use xlink:href="#m701d983a0f" x="189.987775" y="639.407172" style="fill: #262626; stroke: #262626"/>
      </g>
     </g>
     <g id="text_29">
      <!-- GCA-002050365 (bin.32) -->
      <g style="fill: #262626" transform="translate(28.222925 644.08781) scale(0.1232 -0.1232)">
       <defs>
        <path id="DejaVuSans-47" d="M 3809 666 
L 3809 1919 
L 2778 1919 
L 2778 2438 
L 4434 2438 
L 4434 434 
Q 4069 175 3628 42 
Q 3188 -91 2688 -91 
Q 1594 -91 976 548 
Q 359 1188 359 2328 
Q 359 3472 976 4111 
Q 1594 4750 2688 4750 
Q 3144 4750 3555 4637 
Q 3966 4525 4313 4306 
L 4313 3634 
Q 3963 3931 3569 4081 
Q 3175 4231 2741 4231 
Q 1884 4231 1454 3753 
Q 1025 3275 1025 2328 
Q 1025 1384 1454 906 
Q 1884 428 2741 428 
Q 3075 428 3337 486 
Q 3600 544 3809 666 
z
" transform="scale(0.015625)"/>
        <path id="DejaVuSans-2d" d="M 313 2009 
L 1997 2009 
L 1997 1497 
L 313 1497 
L 313 2009 
z
" transform="scale(0.015625)"/>
       </defs>
       <use xlink:href="#DejaVuSans-47"/>
       <use xlink:href="#DejaVuSans-43" transform="translate(77.490234 0)"/>
       <use xlink:href="#DejaVuSans-41" transform="translate(147.314453 0)"/>
       <use xlink:href="#DejaVuSans-2d" transform="translate(213.472656 0)"/>
       <use xlink:href="#DejaVuSans-30" transform="translate(249.556641 0)"/>
       <use xlink:href="#DejaVuSans-30" transform="translate(313.179688 0)"/>
       <use xlink:href="#DejaVuSans-32" transform="translate(376.802734 0)"/>
       <use xlink:href="#DejaVuSans-30" transform="translate(440.425781 0)"/>
       <use xlink:href="#DejaVuSans-35" transform="translate(504.048828 0)"/>
       <use xlink:href="#DejaVuSans-30" transform="translate(567.671875 0)"/>
       <use xlink:href="#DejaVuSans-33" transform="translate(631.294922 0)"/>
       <use xlink:href="#DejaVuSans-36" transform="translate(694.917969 0)"/>
       <use xlink:href="#DejaVuSans-35" transform="translate(758.541016 0)"/>
       <use xlink:href="#DejaVuSans-20" transform="translate(822.164062 0)"/>
       <use xlink:href="#DejaVuSans-28" transform="translate(853.951172 0)"/>
       <use xlink:href="#DejaVuSans-62" transform="translate(892.964844 0)"/>
       <use xlink:href="#DejaVuSans-69" transform="translate(956.441406 0)"/>
       <use xlink:href="#DejaVuSans-6e" transform="translate(984.224609 0)"/>
       <use xlink:href="#DejaVuSans-2e" transform="translate(1047.603516 0)"/>
       <use xlink:href="#DejaVuSans-33" transform="translate(1079.390625 0)"/>
       <use xlink:href="#DejaVuSans-32" transform="translate(1143.013672 0)"/>
       <use xlink:href="#DejaVuSans-29" transform="translate(1206.636719 0)"/>
      </g>
     </g>
    </g>
   </g>
   <g id="patch_19">
    <path d="M 189.987775 398.47514 
L 227.986718 398.47514 
L 227.986718 413.077082 
L 189.987775 413.077082 
z
" clip-path="url(#pf3bde4fc8d)" style="fill: #debca9; stroke: #ffffff; stroke-width: 0.8; stroke-linejoin: miter"/>
   </g>
   <g id="patch_20">
    <path d="M 189.987775 453.23242 
L 304.039699 453.23242 
L 304.039699 467.834362 
L 189.987775 467.834362 
z
" clip-path="url(#pf3bde4fc8d)" style="fill: #debca9; stroke: #ffffff; stroke-width: 0.8; stroke-linejoin: miter"/>
   </g>
   <g id="patch_21">
    <path d="M 189.987775 507.989701 
L 300.351858 507.989701 
L 300.351858 522.591642 
L 189.987775 522.591642 
z
" clip-path="url(#pf3bde4fc8d)" style="fill: #debca9; stroke: #ffffff; stroke-width: 0.8; stroke-linejoin: miter"/>
   </g>
   <g id="patch_22">
    <path d="M 189.987775 562.74698 
L 300.351858 562.74698 
L 300.351858 577.348922 
L 189.987775 577.348922 
z
" clip-path="url(#pf3bde4fc8d)" style="fill: #debca9; stroke: #ffffff; stroke-width: 0.8; stroke-linejoin: miter"/>
   </g>
   <g id="patch_23">
    <path d="M 189.987775 617.50426 
L 300.351858 617.50426 
L 300.351858 632.106202 
L 189.987775 632.106202 
z
" clip-path="url(#pf3bde4fc8d)" style="fill: #debca9; stroke: #ffffff; stroke-width: 0.8; stroke-linejoin: miter"/>
   </g>
   <g id="patch_24">
    <path d="M 189.987775 413.077082 
L 673.949299 413.077082 
L 673.949299 427.679023 
L 189.987775 427.679023 
z
" clip-path="url(#pf3bde4fc8d)" style="fill: #accdaa; stroke: #ffffff; stroke-width: 0.8; stroke-linejoin: miter"/>
   </g>
   <g id="patch_25">
    <path d="M 189.987775 467.834362 
L 618.893953 467.834362 
L 618.893953 482.436303 
L 189.987775 482.436303 
z
" clip-path="url(#pf3bde4fc8d)" style="fill: #accdaa; stroke: #ffffff; stroke-width: 0.8; stroke-linejoin: miter"/>
   </g>
   <g id="patch_26">
    <path d="M 189.987775 522.591642 
L 610.601607 522.591642 
L 610.601607 537.193583 
L 189.987775 537.193583 
z
" clip-path="url(#pf3bde4fc8d)" style="fill: #accdaa; stroke: #ffffff; stroke-width: 0.8; stroke-linejoin: miter"/>
   </g>
   <g id="patch_27">
    <path d="M 189.987775 577.348922 
L 610.601607 577.348922 
L 610.601607 591.950863 
L 189.987775 591.950863 
z
" clip-path="url(#pf3bde4fc8d)" style="fill: #accdaa; stroke: #ffffff; stroke-width: 0.8; stroke-linejoin: miter"/>
   </g>
   <g id="patch_28">
    <path d="M 189.987775 632.106202 
L 610.601607 632.106202 
L 610.601607 646.708143 
L 189.987775 646.708143 
z
" clip-path="url(#pf3bde4fc8d)" style="fill: #accdaa; stroke: #ffffff; stroke-width: 0.8; stroke-linejoin: miter"/>
   </g>
   <g id="patch_29">
    <path d="M 189.987775 427.679023 
L 210.977688 427.679023 
L 210.977688 442.280964 
L 189.987775 442.280964 
z
" clip-path="url(#pf3bde4fc8d)" style="fill: #9aa7c7; stroke: #ffffff; stroke-width: 0.8; stroke-linejoin: miter"/>
   </g>
   <g id="patch_30">
    <path d="M 189.987775 420.378052 
L 189.987775 420.378052 
L 189.987775 420.378052 
L 189.987775 420.378052 
z
" clip-path="url(#pf3bde4fc8d)" style="fill: #debca9; stroke: #ffffff; stroke-width: 0.8; stroke-linejoin: miter"/>
   </g>
   <g id="patch_31">
    <path d="M 189.987775 420.378052 
L 189.987775 420.378052 
L 189.987775 420.378052 
L 189.987775 420.378052 
z
" clip-path="url(#pf3bde4fc8d)" style="fill: #accdaa; stroke: #ffffff; stroke-width: 0.8; stroke-linejoin: miter"/>
   </g>
   <g id="patch_32">
    <path d="M 189.987775 420.378052 
L 189.987775 420.378052 
L 189.987775 420.378052 
L 189.987775 420.378052 
z
" clip-path="url(#pf3bde4fc8d)" style="fill: #9aa7c7; stroke: #ffffff; stroke-width: 0.8; stroke-linejoin: miter"/>
   </g>
   <g id="line2d_37">
    <path clip-path="url(#pf3bde4fc8d)" style="fill: none; stroke: #424242; stroke-width: 1.8; stroke-linecap: round"/>
   </g>
   <g id="line2d_38">
    <path clip-path="url(#pf3bde4fc8d)" style="fill: none; stroke: #424242; stroke-width: 1.8; stroke-linecap: round"/>
   </g>
   <g id="line2d_39">
    <path clip-path="url(#pf3bde4fc8d)" style="fill: none; stroke: #424242; stroke-width: 1.8; stroke-linecap: round"/>
   </g>
   <g id="line2d_40">
    <path clip-path="url(#pf3bde4fc8d)" style="fill: none; stroke: #424242; stroke-width: 1.8; stroke-linecap: round"/>
   </g>
   <g id="line2d_41">
    <path clip-path="url(#pf3bde4fc8d)" style="fill: none; stroke: #424242; stroke-width: 1.8; stroke-linecap: round"/>
   </g>
   <g id="line2d_42">
    <path clip-path="url(#pf3bde4fc8d)" style="fill: none; stroke: #424242; stroke-width: 1.8; stroke-linecap: round"/>
   </g>
   <g id="line2d_43">
    <path clip-path="url(#pf3bde4fc8d)" style="fill: none; stroke: #424242; stroke-width: 1.8; stroke-linecap: round"/>
   </g>
   <g id="line2d_44">
    <path clip-path="url(#pf3bde4fc8d)" style="fill: none; stroke: #424242; stroke-width: 1.8; stroke-linecap: round"/>
   </g>
   <g id="line2d_45">
    <path clip-path="url(#pf3bde4fc8d)" style="fill: none; stroke: #424242; stroke-width: 1.8; stroke-linecap: round"/>
   </g>
   <g id="line2d_46">
    <path clip-path="url(#pf3bde4fc8d)" style="fill: none; stroke: #424242; stroke-width: 1.8; stroke-linecap: round"/>
   </g>
   <g id="line2d_47">
    <path clip-path="url(#pf3bde4fc8d)" style="fill: none; stroke: #424242; stroke-width: 1.8; stroke-linecap: round"/>
   </g>
   <g id="patch_33">
    <path d="M 189.987775 666.785812 
L 189.987775 392.999412 
" style="fill: none; stroke: #262626; stroke-linejoin: miter; stroke-linecap: square"/>
   </g>
   <g id="patch_34">
    <path d="M 189.987775 666.785812 
L 698.147375 666.785812 
" style="fill: none; stroke: #262626; stroke-linejoin: miter; stroke-linecap: square"/>
   </g>
   <g id="text_30">
    <!-- Top Species in AD-NL -->
    <g style="fill: #262626" transform="translate(189.987775 372.999412) scale(0.14 -0.14)">
     <defs>
      <path id="DejaVuSans-Bold-41" d="M 3419 850 
L 1538 850 
L 1241 0 
L 31 0 
L 1759 4666 
L 3194 4666 
L 4922 0 
L 3713 0 
L 3419 850 
z
M 1838 1716 
L 3116 1716 
L 2478 3572 
L 1838 1716 
z
" transform="scale(0.015625)"/>
      <path id="DejaVuSans-Bold-44" d="M 1791 3756 
L 1791 909 
L 2222 909 
Q 2959 909 3348 1275 
Q 3738 1641 3738 2338 
Q 3738 3031 3350 3393 
Q 2963 3756 2222 3756 
L 1791 3756 
z
M 588 4666 
L 1856 4666 
Q 2919 4666 3439 4514 
Q 3959 4363 4331 4000 
Q 4659 3684 4818 3271 
Q 4978 2859 4978 2338 
Q 4978 1809 4818 1395 
Q 4659 981 4331 666 
Q 3956 303 3431 151 
Q 2906 0 1856 0 
L 588 0 
L 588 4666 
z
" transform="scale(0.015625)"/>
      <path id="DejaVuSans-Bold-2d" d="M 347 2297 
L 2309 2297 
L 2309 1388 
L 347 1388 
L 347 2297 
z
" transform="scale(0.015625)"/>
      <path id="DejaVuSans-Bold-4c" d="M 588 4666 
L 1791 4666 
L 1791 909 
L 3903 909 
L 3903 0 
L 588 0 
L 588 4666 
z
" transform="scale(0.015625)"/>
     </defs>
     <use xlink:href="#DejaVuSans-Bold-54"/>
     <use xlink:href="#DejaVuSans-Bold-6f" transform="translate(54.962891 0)"/>
     <use xlink:href="#DejaVuSans-Bold-70" transform="translate(123.664062 0)"/>
     <use xlink:href="#DejaVuSans-Bold-20" transform="translate(195.246094 0)"/>
     <use xlink:href="#DejaVuSans-Bold-53" transform="translate(230.060547 0)"/>
     <use xlink:href="#DejaVuSans-Bold-70" transform="translate(302.082031 0)"/>
     <use xlink:href="#DejaVuSans-Bold-65" transform="translate(373.664062 0)"/>
     <use xlink:href="#DejaVuSans-Bold-63" transform="translate(441.486328 0)"/>
     <use xlink:href="#DejaVuSans-Bold-69" transform="translate(500.763672 0)"/>
     <use xlink:href="#DejaVuSans-Bold-65" transform="translate(535.041016 0)"/>
     <use xlink:href="#DejaVuSans-Bold-73" transform="translate(602.863281 0)"/>
     <use xlink:href="#DejaVuSans-Bold-20" transform="translate(662.384766 0)"/>
     <use xlink:href="#DejaVuSans-Bold-69" transform="translate(697.199219 0)"/>
     <use xlink:href="#DejaVuSans-Bold-6e" transform="translate(731.476562 0)"/>
     <use xlink:href="#DejaVuSans-Bold-20" transform="translate(802.667969 0)"/>
     <use xlink:href="#DejaVuSans-Bold-41" transform="translate(837.482422 0)"/>
     <use xlink:href="#DejaVuSans-Bold-44" transform="translate(914.875 0)"/>
     <use xlink:href="#DejaVuSans-Bold-2d" transform="translate(999.757812 0)"/>
     <use xlink:href="#DejaVuSans-Bold-4e" transform="translate(1041.261719 0)"/>
     <use xlink:href="#DejaVuSans-Bold-4c" transform="translate(1124.953125 0)"/>
    </g>
   </g>
  </g>
  <g id="axes_3">
   <g id="patch_35">
    <path d="M 189.987775 1021.947412 
L 698.147375 1021.947412 
L 698.147375 748.161012 
L 189.987775 748.161012 
z
" style="fill: #ffffff"/>
   </g>
   <g id="matplotlib.axis_5">
    <g id="xtick_17">
     <g id="line2d_48">
      <g>
       <use xlink:href="#me797ee3989" x="189.987775" y="1021.947412" style="fill: #262626; stroke: #262626"/>
      </g>
     </g>
     <g id="text_31">
      <!-- 0 -->
      <g style="fill: #262626" transform="translate(186.068475 1039.608687) scale(0.1232 -0.1232)">
       <use xlink:href="#DejaVuSans-30"/>
      </g>
     </g>
    </g>
    <g id="xtick_18">
     <g id="line2d_49">
      <g>
       <use xlink:href="#me797ee3989" x="264.51785" y="1021.947412" style="fill: #262626; stroke: #262626"/>
      </g>
     </g>
     <g id="text_32">
      <!-- 100 k -->
      <g style="fill: #262626" transform="translate(247.2352 1039.608687) scale(0.1232 -0.1232)">
       <use xlink:href="#DejaVuSans-31"/>
       <use xlink:href="#DejaVuSans-30" transform="translate(63.623047 0)"/>
       <use xlink:href="#DejaVuSans-30" transform="translate(127.246094 0)"/>
       <use xlink:href="#DejaVuSans-20" transform="translate(190.869141 0)"/>
       <use xlink:href="#DejaVuSans-6b" transform="translate(222.65625 0)"/>
      </g>
     </g>
    </g>
    <g id="xtick_19">
     <g id="line2d_50">
      <g>
       <use xlink:href="#me797ee3989" x="339.047924" y="1021.947412" style="fill: #262626; stroke: #262626"/>
      </g>
     </g>
     <g id="text_33">
      <!-- 200 k -->
      <g style="fill: #262626" transform="translate(321.765274 1039.608687) scale(0.1232 -0.1232)">
       <use xlink:href="#DejaVuSans-32"/>
       <use xlink:href="#DejaVuSans-30" transform="translate(63.623047 0)"/>
       <use xlink:href="#DejaVuSans-30" transform="translate(127.246094 0)"/>
       <use xlink:href="#DejaVuSans-20" transform="translate(190.869141 0)"/>
       <use xlink:href="#DejaVuSans-6b" transform="translate(222.65625 0)"/>
      </g>
     </g>
    </g>
    <g id="xtick_20">
     <g id="line2d_51">
      <g>
       <use xlink:href="#me797ee3989" x="413.577999" y="1021.947412" style="fill: #262626; stroke: #262626"/>
      </g>
     </g>
     <g id="text_34">
      <!-- 300 k -->
      <g style="fill: #262626" transform="translate(396.295349 1039.608687) scale(0.1232 -0.1232)">
       <use xlink:href="#DejaVuSans-33"/>
       <use xlink:href="#DejaVuSans-30" transform="translate(63.623047 0)"/>
       <use xlink:href="#DejaVuSans-30" transform="translate(127.246094 0)"/>
       <use xlink:href="#DejaVuSans-20" transform="translate(190.869141 0)"/>
       <use xlink:href="#DejaVuSans-6b" transform="translate(222.65625 0)"/>
      </g>
     </g>
    </g>
    <g id="xtick_21">
     <g id="line2d_52">
      <g>
       <use xlink:href="#me797ee3989" x="488.108074" y="1021.947412" style="fill: #262626; stroke: #262626"/>
      </g>
     </g>
     <g id="text_35">
      <!-- 400 k -->
      <g style="fill: #262626" transform="translate(470.825424 1039.608687) scale(0.1232 -0.1232)">
       <use xlink:href="#DejaVuSans-34"/>
       <use xlink:href="#DejaVuSans-30" transform="translate(63.623047 0)"/>
       <use xlink:href="#DejaVuSans-30" transform="translate(127.246094 0)"/>
       <use xlink:href="#DejaVuSans-20" transform="translate(190.869141 0)"/>
       <use xlink:href="#DejaVuSans-6b" transform="translate(222.65625 0)"/>
      </g>
     </g>
    </g>
    <g id="xtick_22">
     <g id="line2d_53">
      <g>
       <use xlink:href="#me797ee3989" x="562.638148" y="1021.947412" style="fill: #262626; stroke: #262626"/>
      </g>
     </g>
     <g id="text_36">
      <!-- 500 k -->
      <g style="fill: #262626" transform="translate(545.355498 1039.608687) scale(0.1232 -0.1232)">
       <use xlink:href="#DejaVuSans-35"/>
       <use xlink:href="#DejaVuSans-30" transform="translate(63.623047 0)"/>
       <use xlink:href="#DejaVuSans-30" transform="translate(127.246094 0)"/>
       <use xlink:href="#DejaVuSans-20" transform="translate(190.869141 0)"/>
       <use xlink:href="#DejaVuSans-6b" transform="translate(222.65625 0)"/>
      </g>
     </g>
    </g>
    <g id="xtick_23">
     <g id="line2d_54">
      <g>
       <use xlink:href="#me797ee3989" x="637.168223" y="1021.947412" style="fill: #262626; stroke: #262626"/>
      </g>
     </g>
     <g id="text_37">
      <!-- 600 k -->
      <g style="fill: #262626" transform="translate(619.885573 1039.608687) scale(0.1232 -0.1232)">
       <use xlink:href="#DejaVuSans-36"/>
       <use xlink:href="#DejaVuSans-30" transform="translate(63.623047 0)"/>
       <use xlink:href="#DejaVuSans-30" transform="translate(127.246094 0)"/>
       <use xlink:href="#DejaVuSans-20" transform="translate(190.869141 0)"/>
       <use xlink:href="#DejaVuSans-6b" transform="translate(222.65625 0)"/>
      </g>
     </g>
    </g>
    <g id="text_38">
     <!-- Mean Abundance (RPKM) -->
     <g style="fill: #262626" transform="translate(368.527575 1055.288987) scale(0.12 -0.12)">
      <use xlink:href="#DejaVuSans-4d"/>
      <use xlink:href="#DejaVuSans-65" transform="translate(86.279297 0)"/>
      <use xlink:href="#DejaVuSans-61" transform="translate(147.802734 0)"/>
      <use xlink:href="#DejaVuSans-6e" transform="translate(209.082031 0)"/>
      <use xlink:href="#DejaVuSans-20" transform="translate(272.460938 0)"/>
      <use xlink:href="#DejaVuSans-41" transform="translate(304.248047 0)"/>
      <use xlink:href="#DejaVuSans-62" transform="translate(372.65625 0)"/>
      <use xlink:href="#DejaVuSans-75" transform="translate(436.132812 0)"/>
      <use xlink:href="#DejaVuSans-6e" transform="translate(499.511719 0)"/>
      <use xlink:href="#DejaVuSans-64" transform="translate(562.890625 0)"/>
      <use xlink:href="#DejaVuSans-61" transform="translate(626.367188 0)"/>
      <use xlink:href="#DejaVuSans-6e" transform="translate(687.646484 0)"/>
      <use xlink:href="#DejaVuSans-63" transform="translate(751.025391 0)"/>
      <use xlink:href="#DejaVuSans-65" transform="translate(806.005859 0)"/>
      <use xlink:href="#DejaVuSans-20" transform="translate(867.529297 0)"/>
      <use xlink:href="#DejaVuSans-28" transform="translate(899.316406 0)"/>
      <use xlink:href="#DejaVuSans-52" transform="translate(938.330078 0)"/>
      <use xlink:href="#DejaVuSans-50" transform="translate(1007.8125 0)"/>
      <use xlink:href="#DejaVuSans-4b" transform="translate(1068.115234 0)"/>
      <use xlink:href="#DejaVuSans-4d" transform="translate(1133.691406 0)"/>
      <use xlink:href="#DejaVuSans-29" transform="translate(1219.970703 0)"/>
     </g>
    </g>
   </g>
   <g id="matplotlib.axis_6">
    <g id="ytick_11">
     <g id="line2d_55">
      <g>
       <use xlink:href="#m701d983a0f" x="189.987775" y="775.539652" style="fill: #262626; stroke: #262626"/>
      </g>
     </g>
     <g id="text_39">
      <!-- Paracoccus salipaludis -->
      <g style="fill: #262626" transform="translate(43.57095 780.22029) scale(0.1232 -0.1232)">
       <use xlink:href="#DejaVuSans-50"/>
       <use xlink:href="#DejaVuSans-61" transform="translate(55.802734 0)"/>
       <use xlink:href="#DejaVuSans-72" transform="translate(117.082031 0)"/>
       <use xlink:href="#DejaVuSans-61" transform="translate(158.195312 0)"/>
       <use xlink:href="#DejaVuSans-63" transform="translate(219.474609 0)"/>
       <use xlink:href="#DejaVuSans-6f" transform="translate(274.455078 0)"/>
       <use xlink:href="#DejaVuSans-63" transform="translate(335.636719 0)"/>
       <use xlink:href="#DejaVuSans-63" transform="translate(390.617188 0)"/>
       <use xlink:href="#DejaVuSans-75" transform="translate(445.597656 0)"/>
       <use xlink:href="#DejaVuSans-73" transform="translate(508.976562 0)"/>
       <use xlink:href="#DejaVuSans-20" transform="translate(561.076172 0)"/>
       <use xlink:href="#DejaVuSans-73" transform="translate(592.863281 0)"/>
       <use xlink:href="#DejaVuSans-61" transform="translate(644.962891 0)"/>
       <use xlink:href="#DejaVuSans-6c" transform="translate(706.242188 0)"/>
       <use xlink:href="#DejaVuSans-69" transform="translate(734.025391 0)"/>
       <use xlink:href="#DejaVuSans-70" transform="translate(761.808594 0)"/>
       <use xlink:href="#DejaVuSans-61" transform="translate(825.285156 0)"/>
       <use xlink:href="#DejaVuSans-6c" transform="translate(886.564453 0)"/>
       <use xlink:href="#DejaVuSans-75" transform="translate(914.347656 0)"/>
       <use xlink:href="#DejaVuSans-64" transform="translate(977.726562 0)"/>
       <use xlink:href="#DejaVuSans-69" transform="translate(1041.203125 0)"/>
       <use xlink:href="#DejaVuSans-73" transform="translate(1068.986328 0)"/>
      </g>
     </g>
    </g>
    <g id="ytick_12">
     <g id="line2d_56">
      <g>
       <use xlink:href="#m701d983a0f" x="189.987775" y="830.296932" style="fill: #262626; stroke: #262626"/>
      </g>
     </g>
     <g id="text_40">
      <!-- Solilutibacter oculi -->
      <g style="fill: #262626" transform="translate(67.4987 834.97757) scale(0.1232 -0.1232)">
       <use xlink:href="#DejaVuSans-53"/>
       <use xlink:href="#DejaVuSans-6f" transform="translate(63.476562 0)"/>
       <use xlink:href="#DejaVuSans-6c" transform="translate(124.658203 0)"/>
       <use xlink:href="#DejaVuSans-69" transform="translate(152.441406 0)"/>
       <use xlink:href="#DejaVuSans-6c" transform="translate(180.224609 0)"/>
       <use xlink:href="#DejaVuSans-75" transform="translate(208.007812 0)"/>
       <use xlink:href="#DejaVuSans-74" transform="translate(271.386719 0)"/>
       <use xlink:href="#DejaVuSans-69" transform="translate(310.595703 0)"/>
       <use xlink:href="#DejaVuSans-62" transform="translate(338.378906 0)"/>
       <use xlink:href="#DejaVuSans-61" transform="translate(401.855469 0)"/>
       <use xlink:href="#DejaVuSans-63" transform="translate(463.134766 0)"/>
       <use xlink:href="#DejaVuSans-74" transform="translate(518.115234 0)"/>
       <use xlink:href="#DejaVuSans-65" transform="translate(557.324219 0)"/>
       <use xlink:href="#DejaVuSans-72" transform="translate(618.847656 0)"/>
       <use xlink:href="#DejaVuSans-20" transform="translate(659.960938 0)"/>
       <use xlink:href="#DejaVuSans-6f" transform="translate(691.748047 0)"/>
       <use xlink:href="#DejaVuSans-63" transform="translate(752.929688 0)"/>
       <use xlink:href="#DejaVuSans-75" transform="translate(807.910156 0)"/>
       <use xlink:href="#DejaVuSans-6c" transform="translate(871.289062 0)"/>
       <use xlink:href="#DejaVuSans-69" transform="translate(899.072266 0)"/>
      </g>
     </g>
    </g>
    <g id="ytick_13">
     <g id="line2d_57">
      <g>
       <use xlink:href="#m701d983a0f" x="189.987775" y="885.054212" style="fill: #262626; stroke: #262626"/>
      </g>
     </g>
     <g id="text_41">
      <!-- Acinetobacter parvus -->
      <g style="fill: #262626" transform="translate(50.033175 889.73485) scale(0.1232 -0.1232)">
       <use xlink:href="#DejaVuSans-41"/>
       <use xlink:href="#DejaVuSans-63" transform="translate(66.658203 0)"/>
       <use xlink:href="#DejaVuSans-69" transform="translate(121.638672 0)"/>
       <use xlink:href="#DejaVuSans-6e" transform="translate(149.421875 0)"/>
       <use xlink:href="#DejaVuSans-65" transform="translate(212.800781 0)"/>
       <use xlink:href="#DejaVuSans-74" transform="translate(274.324219 0)"/>
       <use xlink:href="#DejaVuSans-6f" transform="translate(313.533203 0)"/>
       <use xlink:href="#DejaVuSans-62" transform="translate(374.714844 0)"/>
       <use xlink:href="#DejaVuSans-61" transform="translate(438.191406 0)"/>
       <use xlink:href="#DejaVuSans-63" transform="translate(499.470703 0)"/>
       <use xlink:href="#DejaVuSans-74" transform="translate(554.451172 0)"/>
       <use xlink:href="#DejaVuSans-65" transform="translate(593.660156 0)"/>
       <use xlink:href="#DejaVuSans-72" transform="translate(655.183594 0)"/>
       <use xlink:href="#DejaVuSans-20" transform="translate(696.296875 0)"/>
       <use xlink:href="#DejaVuSans-70" transform="translate(728.083984 0)"/>
       <use xlink:href="#DejaVuSans-61" transform="translate(791.560547 0)"/>
       <use xlink:href="#DejaVuSans-72" transform="translate(852.839844 0)"/>
       <use xlink:href="#DejaVuSans-76" transform="translate(893.953125 0)"/>
       <use xlink:href="#DejaVuSans-75" transform="translate(953.132812 0)"/>
       <use xlink:href="#DejaVuSans-73" transform="translate(1016.511719 0)"/>
      </g>
     </g>
    </g>
    <g id="ytick_14">
     <g id="line2d_58">
      <g>
       <use xlink:href="#m701d983a0f" x="189.987775" y="939.811492" style="fill: #262626; stroke: #262626"/>
      </g>
     </g>
     <g id="text_42">
      <!-- Bergeyella_A sp916710115 -->
      <g style="fill: #262626" transform="translate(12.846025 944.49213) scale(0.1232 -0.1232)">
       <defs>
        <path id="DejaVuSans-67" d="M 2906 1791 
Q 2906 2416 2648 2759 
Q 2391 3103 1925 3103 
Q 1463 3103 1205 2759 
Q 947 2416 947 1791 
Q 947 1169 1205 825 
Q 1463 481 1925 481 
Q 2391 481 2648 825 
Q 2906 1169 2906 1791 
z
M 3481 434 
Q 3481 -459 3084 -895 
Q 2688 -1331 1869 -1331 
Q 1566 -1331 1297 -1286 
Q 1028 -1241 775 -1147 
L 775 -588 
Q 1028 -725 1275 -790 
Q 1522 -856 1778 -856 
Q 2344 -856 2625 -561 
Q 2906 -266 2906 331 
L 2906 616 
Q 2728 306 2450 153 
Q 2172 0 1784 0 
Q 1141 0 747 490 
Q 353 981 353 1791 
Q 353 2603 747 3093 
Q 1141 3584 1784 3584 
Q 2172 3584 2450 3431 
Q 2728 3278 2906 2969 
L 2906 3500 
L 3481 3500 
L 3481 434 
z
" transform="scale(0.015625)"/>
        <path id="DejaVuSans-79" d="M 2059 -325 
Q 1816 -950 1584 -1140 
Q 1353 -1331 966 -1331 
L 506 -1331 
L 506 -850 
L 844 -850 
Q 1081 -850 1212 -737 
Q 1344 -625 1503 -206 
L 1606 56 
L 191 3500 
L 800 3500 
L 1894 763 
L 2988 3500 
L 3597 3500 
L 2059 -325 
z
" transform="scale(0.015625)"/>
       </defs>
       <use xlink:href="#DejaVuSans-42"/>
       <use xlink:href="#DejaVuSans-65" transform="translate(68.603516 0)"/>
       <use xlink:href="#DejaVuSans-72" transform="translate(130.126953 0)"/>
       <use xlink:href="#DejaVuSans-67" transform="translate(169.490234 0)"/>
       <use xlink:href="#DejaVuSans-65" transform="translate(232.966797 0)"/>
       <use xlink:href="#DejaVuSans-79" transform="translate(294.490234 0)"/>
       <use xlink:href="#DejaVuSans-65" transform="translate(353.669922 0)"/>
       <use xlink:href="#DejaVuSans-6c" transform="translate(415.193359 0)"/>
       <use xlink:href="#DejaVuSans-6c" transform="translate(442.976562 0)"/>
       <use xlink:href="#DejaVuSans-61" transform="translate(470.759766 0)"/>
       <use xlink:href="#DejaVuSans-5f" transform="translate(532.039062 0)"/>
       <use xlink:href="#DejaVuSans-41" transform="translate(582.039062 0)"/>
       <use xlink:href="#DejaVuSans-20" transform="translate(650.447266 0)"/>
       <use xlink:href="#DejaVuSans-73" transform="translate(682.234375 0)"/>
       <use xlink:href="#DejaVuSans-70" transform="translate(734.333984 0)"/>
       <use xlink:href="#DejaVuSans-39" transform="translate(797.810547 0)"/>
       <use xlink:href="#DejaVuSans-31" transform="translate(861.433594 0)"/>
       <use xlink:href="#DejaVuSans-36" transform="translate(925.056641 0)"/>
       <use xlink:href="#DejaVuSans-37" transform="translate(988.679688 0)"/>
       <use xlink:href="#DejaVuSans-31" transform="translate(1052.302734 0)"/>
       <use xlink:href="#DejaVuSans-30" transform="translate(1115.925781 0)"/>
       <use xlink:href="#DejaVuSans-31" transform="translate(1179.548828 0)"/>
       <use xlink:href="#DejaVuSans-31" transform="translate(1243.171875 0)"/>
       <use xlink:href="#DejaVuSans-35" transform="translate(1306.794922 0)"/>
      </g>
     </g>
    </g>
    <g id="ytick_15">
     <g id="line2d_59">
      <g>
       <use xlink:href="#m701d983a0f" x="189.987775" y="994.568772" style="fill: #262626; stroke: #262626"/>
      </g>
     </g>
     <g id="text_43">
      <!-- Ferruginibacter (bin.19) -->
      <g style="fill: #262626" transform="translate(35.70925 999.24941) scale(0.1232 -0.1232)">
       <use xlink:href="#DejaVuSans-46"/>
       <use xlink:href="#DejaVuSans-65" transform="translate(52.019531 0)"/>
       <use xlink:href="#DejaVuSans-72" transform="translate(113.542969 0)"/>
       <use xlink:href="#DejaVuSans-72" transform="translate(152.90625 0)"/>
       <use xlink:href="#DejaVuSans-75" transform="translate(194.019531 0)"/>
       <use xlink:href="#DejaVuSans-67" transform="translate(257.398438 0)"/>
       <use xlink:href="#DejaVuSans-69" transform="translate(320.875 0)"/>
       <use xlink:href="#DejaVuSans-6e" transform="translate(348.658203 0)"/>
       <use xlink:href="#DejaVuSans-69" transform="translate(412.037109 0)"/>
       <use xlink:href="#DejaVuSans-62" transform="translate(439.820312 0)"/>
       <use xlink:href="#DejaVuSans-61" transform="translate(503.296875 0)"/>
       <use xlink:href="#DejaVuSans-63" transform="translate(564.576172 0)"/>
       <use xlink:href="#DejaVuSans-74" transform="translate(619.556641 0)"/>
       <use xlink:href="#DejaVuSans-65" transform="translate(658.765625 0)"/>
       <use xlink:href="#DejaVuSans-72" transform="translate(720.289062 0)"/>
       <use xlink:href="#DejaVuSans-20" transform="translate(761.402344 0)"/>
       <use xlink:href="#DejaVuSans-28" transform="translate(793.189453 0)"/>
       <use xlink:href="#DejaVuSans-62" transform="translate(832.203125 0)"/>
       <use xlink:href="#DejaVuSans-69" transform="translate(895.679688 0)"/>
       <use xlink:href="#DejaVuSans-6e" transform="translate(923.462891 0)"/>
       <use xlink:href="#DejaVuSans-2e" transform="translate(986.841797 0)"/>
       <use xlink:href="#DejaVuSans-31" transform="translate(1018.628906 0)"/>
       <use xlink:href="#DejaVuSans-39" transform="translate(1082.251953 0)"/>
       <use xlink:href="#DejaVuSans-29" transform="translate(1145.875 0)"/>
      </g>
     </g>
    </g>
   </g>
   <g id="patch_36">
    <path d="M 189.987775 753.63674 
L 304.781688 753.63674 
L 304.781688 768.238682 
L 189.987775 768.238682 
z
" clip-path="url(#p54cff7c8a5)" style="fill: #debca9; stroke: #ffffff; stroke-width: 0.8; stroke-linejoin: miter"/>
   </g>
   <g id="patch_37">
    <path d="M 189.987775 808.39402 
L 304.781688 808.39402 
L 304.781688 822.995962 
L 189.987775 822.995962 
z
" clip-path="url(#p54cff7c8a5)" style="fill: #debca9; stroke: #ffffff; stroke-width: 0.8; stroke-linejoin: miter"/>
   </g>
   <g id="patch_38">
    <path d="M 189.987775 863.1513 
L 256.135858 863.1513 
L 256.135858 877.753242 
L 189.987775 877.753242 
z
" clip-path="url(#p54cff7c8a5)" style="fill: #debca9; stroke: #ffffff; stroke-width: 0.8; stroke-linejoin: miter"/>
   </g>
   <g id="patch_39">
    <path d="M 189.987775 768.238682 
L 212.218968 768.238682 
L 212.218968 782.840623 
L 189.987775 782.840623 
z
" clip-path="url(#p54cff7c8a5)" style="fill: #accdaa; stroke: #ffffff; stroke-width: 0.8; stroke-linejoin: miter"/>
   </g>
   <g id="patch_40">
    <path d="M 189.987775 822.995962 
L 212.218968 822.995962 
L 212.218968 837.597903 
L 189.987775 837.597903 
z
" clip-path="url(#p54cff7c8a5)" style="fill: #accdaa; stroke: #ffffff; stroke-width: 0.8; stroke-linejoin: miter"/>
   </g>
   <g id="patch_41">
    <path d="M 189.987775 877.753242 
L 192.886131 877.753242 
L 192.886131 892.355183 
L 189.987775 892.355183 
z
" clip-path="url(#p54cff7c8a5)" style="fill: #accdaa; stroke: #ffffff; stroke-width: 0.8; stroke-linejoin: miter"/>
   </g>
   <g id="patch_42">
    <path d="M 189.987775 932.510522 
L 200.550577 932.510522 
L 200.550577 947.112463 
L 189.987775 947.112463 
z
" clip-path="url(#p54cff7c8a5)" style="fill: #accdaa; stroke: #ffffff; stroke-width: 0.8; stroke-linejoin: miter"/>
   </g>
   <g id="patch_43">
    <path d="M 189.987775 987.267802 
L 200.550577 987.267802 
L 200.550577 1001.869743 
L 189.987775 1001.869743 
z
" clip-path="url(#p54cff7c8a5)" style="fill: #accdaa; stroke: #ffffff; stroke-width: 0.8; stroke-linejoin: miter"/>
   </g>
   <g id="patch_44">
    <path d="M 189.987775 782.840623 
L 673.949299 782.840623 
L 673.949299 797.442564 
L 189.987775 797.442564 
z
" clip-path="url(#p54cff7c8a5)" style="fill: #9aa7c7; stroke: #ffffff; stroke-width: 0.8; stroke-linejoin: miter"/>
   </g>
   <g id="patch_45">
    <path d="M 189.987775 837.597903 
L 673.949299 837.597903 
L 673.949299 852.199844 
L 189.987775 852.199844 
z
" clip-path="url(#p54cff7c8a5)" style="fill: #9aa7c7; stroke: #ffffff; stroke-width: 0.8; stroke-linejoin: miter"/>
   </g>
   <g id="patch_46">
    <path d="M 189.987775 892.355183 
L 329.481114 892.355183 
L 329.481114 906.957124 
L 189.987775 906.957124 
z
" clip-path="url(#p54cff7c8a5)" style="fill: #9aa7c7; stroke: #ffffff; stroke-width: 0.8; stroke-linejoin: miter"/>
   </g>
   <g id="patch_47">
    <path d="M 189.987775 947.112463 
L 319.587217 947.112463 
L 319.587217 961.714404 
L 189.987775 961.714404 
z
" clip-path="url(#p54cff7c8a5)" style="fill: #9aa7c7; stroke: #ffffff; stroke-width: 0.8; stroke-linejoin: miter"/>
   </g>
   <g id="patch_48">
    <path d="M 189.987775 1001.869743 
L 319.587217 1001.869743 
L 319.587217 1016.471684 
L 189.987775 1016.471684 
z
" clip-path="url(#p54cff7c8a5)" style="fill: #9aa7c7; stroke: #ffffff; stroke-width: 0.8; stroke-linejoin: miter"/>
   </g>
   <g id="patch_49">
    <path d="M 189.987775 775.539652 
L 189.987775 775.539652 
L 189.987775 775.539652 
L 189.987775 775.539652 
z
" clip-path="url(#p54cff7c8a5)" style="fill: #debca9; stroke: #ffffff; stroke-width: 0.8; stroke-linejoin: miter"/>
   </g>
   <g id="patch_50">
    <path d="M 189.987775 775.539652 
L 189.987775 775.539652 
L 189.987775 775.539652 
L 189.987775 775.539652 
z
" clip-path="url(#p54cff7c8a5)" style="fill: #accdaa; stroke: #ffffff; stroke-width: 0.8; stroke-linejoin: miter"/>
   </g>
   <g id="patch_51">
    <path d="M 189.987775 775.539652 
L 189.987775 775.539652 
L 189.987775 775.539652 
L 189.987775 775.539652 
z
" clip-path="url(#p54cff7c8a5)" style="fill: #9aa7c7; stroke: #ffffff; stroke-width: 0.8; stroke-linejoin: miter"/>
   </g>
   <g id="line2d_60">
    <path clip-path="url(#p54cff7c8a5)" style="fill: none; stroke: #424242; stroke-width: 1.8; stroke-linecap: round"/>
   </g>
   <g id="line2d_61">
    <path clip-path="url(#p54cff7c8a5)" style="fill: none; stroke: #424242; stroke-width: 1.8; stroke-linecap: round"/>
   </g>
   <g id="line2d_62">
    <path clip-path="url(#p54cff7c8a5)" style="fill: none; stroke: #424242; stroke-width: 1.8; stroke-linecap: round"/>
   </g>
   <g id="line2d_63">
    <path clip-path="url(#p54cff7c8a5)" style="fill: none; stroke: #424242; stroke-width: 1.8; stroke-linecap: round"/>
   </g>
   <g id="line2d_64">
    <path clip-path="url(#p54cff7c8a5)" style="fill: none; stroke: #424242; stroke-width: 1.8; stroke-linecap: round"/>
   </g>
   <g id="line2d_65">
    <path clip-path="url(#p54cff7c8a5)" style="fill: none; stroke: #424242; stroke-width: 1.8; stroke-linecap: round"/>
   </g>
   <g id="line2d_66">
    <path clip-path="url(#p54cff7c8a5)" style="fill: none; stroke: #424242; stroke-width: 1.8; stroke-linecap: round"/>
   </g>
   <g id="line2d_67">
    <path clip-path="url(#p54cff7c8a5)" style="fill: none; stroke: #424242; stroke-width: 1.8; stroke-linecap: round"/>
   </g>
   <g id="line2d_68">
    <path clip-path="url(#p54cff7c8a5)" style="fill: none; stroke: #424242; stroke-width: 1.8; stroke-linecap: round"/>
   </g>
   <g id="line2d_69">
    <path clip-path="url(#p54cff7c8a5)" style="fill: none; stroke: #424242; stroke-width: 1.8; stroke-linecap: round"/>
   </g>
   <g id="line2d_70">
    <path clip-path="url(#p54cff7c8a5)" style="fill: none; stroke: #424242; stroke-width: 1.8; stroke-linecap: round"/>
   </g>
   <g id="line2d_71">
    <path clip-path="url(#p54cff7c8a5)" style="fill: none; stroke: #424242; stroke-width: 1.8; stroke-linecap: round"/>
   </g>
   <g id="line2d_72">
    <path clip-path="url(#p54cff7c8a5)" style="fill: none; stroke: #424242; stroke-width: 1.8; stroke-linecap: round"/>
   </g>
   <g id="patch_52">
    <path d="M 189.987775 1021.947412 
L 189.987775 748.161012 
" style="fill: none; stroke: #262626; stroke-linejoin: miter; stroke-linecap: square"/>
   </g>
   <g id="patch_53">
    <path d="M 189.987775 1021.947412 
L 698.147375 1021.947412 
" style="fill: none; stroke: #262626; stroke-linejoin: miter; stroke-linecap: square"/>
   </g>
   <g id="text_44">
    <!-- Top Species in AD-L -->
    <g style="fill: #262626" transform="translate(189.987775 728.161012) scale(0.14 -0.14)">
     <use xlink:href="#DejaVuSans-Bold-54"/>
     <use xlink:href="#DejaVuSans-Bold-6f" transform="translate(54.962891 0)"/>
     <use xlink:href="#DejaVuSans-Bold-70" transform="translate(123.664062 0)"/>
     <use xlink:href="#DejaVuSans-Bold-20" transform="translate(195.246094 0)"/>
     <use xlink:href="#DejaVuSans-Bold-53" transform="translate(230.060547 0)"/>
     <use xlink:href="#DejaVuSans-Bold-70" transform="translate(302.082031 0)"/>
     <use xlink:href="#DejaVuSans-Bold-65" transform="translate(373.664062 0)"/>
     <use xlink:href="#DejaVuSans-Bold-63" transform="translate(441.486328 0)"/>
     <use xlink:href="#DejaVuSans-Bold-69" transform="translate(500.763672 0)"/>
     <use xlink:href="#DejaVuSans-Bold-65" transform="translate(535.041016 0)"/>
     <use xlink:href="#DejaVuSans-Bold-73" transform="translate(602.863281 0)"/>
     <use xlink:href="#DejaVuSans-Bold-20" transform="translate(662.384766 0)"/>
     <use xlink:href="#DejaVuSans-Bold-69" transform="translate(697.199219 0)"/>
     <use xlink:href="#DejaVuSans-Bold-6e" transform="translate(731.476562 0)"/>
     <use xlink:href="#DejaVuSans-Bold-20" transform="translate(802.667969 0)"/>
     <use xlink:href="#DejaVuSans-Bold-41" transform="translate(837.482422 0)"/>
     <use xlink:href="#DejaVuSans-Bold-44" transform="translate(914.875 0)"/>
     <use xlink:href="#DejaVuSans-Bold-2d" transform="translate(999.757812 0)"/>
     <use xlink:href="#DejaVuSans-Bold-4c" transform="translate(1041.261719 0)"/>
    </g>
   </g>
  </g>
 </g>
 <defs>
  <clipPath id="pf0db0c3488">
   <rect x="189.987775" y="37.837812" width="508.1596" height="273.7864"/>
  </clipPath>
  <clipPath id="pf3bde4fc8d">
   <rect x="189.987775" y="392.999412" width="508.1596" height="273.7864"/>
  </clipPath>
  <clipPath id="p54cff7c8a5">
   <rect x="189.987775" y="748.161012" width="508.1596" height="273.7864"/>
  </clipPath>
 </defs>
</svg>
